<svg width="128" height="128" viewBox="0 0 128 128" fill="none" xmlns="http://www.w3.org/2000/svg">
<rect width="128" height="128" rx="64" fill="#DB9935"/>
<path d="M80 63.0001C80 63.34 79.99 63.67 79.97 64.0001H90V36.77C86.49 41.1201 81.25 43.65 75.56 43.65C74.02 43.65 72.47 43.46 70.96 43.08L70.27 42.91C70.18 42.8901 70.09 42.86 70 42.83V44.04C76.04 48.1901 80 55.1401 80 63.0001Z" fill="#F5F6F7"/>
<path d="M78.1599 72H91.9999V67C91.9999 66.45 91.5499 66 90.9999 66H79.7999C79.53 68.1 78.9699 70.12 78.1599 72Z" fill="#F5F6F7"/>
<path d="M77.1899 74C76.4099 75.43 75.4799 76.77 74.4099 78H92.9999V75C92.9999 74.45 92.5499 74 91.9999 74H77.1899Z" fill="#F5F6F7"/>
<path d="M94 80H72.48C70.68 81.64 68.62 83 66.36 84H80C81.65 84 83 85.35 83 87V88C83 91.27 81.42 94.18 78.99 96H92C93.65 96 95 94.65 95 93V81C95 80.45 94.55 80 94 80Z" fill="#F5F6F7"/>
<path d="M70.7568 40.9697L71.4443 41.1416C72.8173 41.4854 74.1972 41.6514 75.5585 41.6514C81.3339 41.6514 86.7685 38.6621 89.8574 33.5146C90.0429 33.2061 90.0478 32.8213 89.8701 32.5068C89.6923 32.1934 89.3603 32 89 32H84.6025C78.8935 32 73.5048 34.7734 70.1865 39.4189C69.9941 39.6875 69.9472 40.0352 70.0615 40.3457C70.1757 40.6562 70.4365 40.8896 70.7568 40.9697Z" fill="#F5F6F7"/>
<path d="M81 87C81 86.4477 80.5523 86 80 86H66V88C66 89.6543 64.6543 91 63 91H51C49.3457 91 48 89.6543 48 88V86H34C33.4477 86 33 86.4477 33 87V88C33 92.4183 36.5817 96 41 96H73C77.4183 96 81 92.4183 81 88V87Z" fill="#F5F6F7"/>
<path d="M50 88C50 88.5518 50.4482 89 51 89H63C63.5518 89 64 88.5518 64 88V86H50V88Z" fill="#F5F6F7"/>
<path d="M55.9141 73.6982L57 73.9688L58.0859 73.6982C63.9229 72.2383 68 67.0166 68 61C68 58.2432 65.7568 56 63 56C61.4346 56 59.9395 56.748 59 58L57.7998 59.6006C57.4229 60.1025 56.5771 60.1025 56.2002 59.6006L55 58.001C54.0605 56.748 52.5654 56 51 56C48.2432 56 46 58.2432 46 61C46 67.0166 50.0771 72.2383 55.9141 73.6982Z" fill="#F5F6F7"/>
<path d="M57 79C65.8223 79 73 71.8223 73 63C73 54.1777 65.8223 47 57 47C48.1777 47 41 54.1777 41 63C41 71.8223 48.1777 79 57 79ZM51 54C53.1914 54 55.2852 55.0469 56.5996 56.8008L57 57.334L57.4004 56.7998C58.7148 55.0469 60.8086 54 63 54C66.8594 54 70 57.1406 70 61C70 67.9365 65.2998 73.9551 58.5703 75.6377L57.2422 75.9697C57.1631 75.9902 57.0811 76 57 76C56.9189 76 56.8369 75.9902 56.7578 75.9697L55.4297 75.6377C48.7002 73.9551 44 67.9365 44 61C44 57.1406 47.1406 54 51 54Z" fill="#F5F6F7"/>
<path d="M57 84C68.58 84 78 74.58 78 63C78 51.42 68.58 42 57 42C45.42 42 36 51.42 36 63C36 74.58 45.42 84 57 84ZM57 45C66.9248 45 75 53.0752 75 63C75 72.9248 66.9248 81 57 81C47.0752 81 39 72.9248 39 63C39 53.0752 47.0752 45 57 45Z" fill="#F5F6F7"/>
</svg>
