<svg width="128" height="128" viewBox="0 0 128 128" fill="none" xmlns="http://www.w3.org/2000/svg">
<rect width="128" height="128" rx="64" fill="#DB9935"/>
<path d="M64.5 34.0312C58.4739 34.0312 52.583 35.8182 47.5725 39.1662C42.5619 42.5141 38.6567 47.2727 36.3506 52.8401C34.0445 58.4076 33.4411 64.5338 34.6167 70.4442C35.7924 76.3545 38.6942 81.7835 42.9554 86.0447C47.2165 90.3058 52.6455 93.2077 58.5559 94.3833C64.4662 95.5589 70.5925 94.9556 76.1599 92.6495C81.7273 90.3433 86.4859 86.4381 89.8339 81.4275C93.1818 76.417 94.9688 70.5261 94.9688 64.5C94.9589 56.4222 91.7457 48.6781 86.0338 42.9662C80.3219 37.2543 72.5778 34.0411 64.5 34.0312ZM43.7305 69.8523L43.6797 55.9688C43.6829 55.7448 43.7312 55.5238 43.8216 55.319C43.912 55.1141 44.0428 54.9295 44.2061 54.7762C44.3693 54.6229 44.5618 54.5041 44.772 54.4268C44.9821 54.3494 45.2057 54.3152 45.4294 54.3261C45.6531 54.337 45.8723 54.3929 46.0739 54.4903C46.2756 54.5877 46.4556 54.7247 46.6032 54.8932C46.7507 55.0616 46.8629 55.258 46.933 55.4707C47.003 55.6834 47.0295 55.9081 47.011 56.1313L47.0719 63.8195C46.6217 64.4249 46.3922 65.1662 46.4218 65.9201C46.4514 66.674 46.7381 67.395 47.2344 67.9633C47.2735 68.015 47.3177 68.0627 47.3664 68.1055L53.511 74.25C53.6657 74.3974 53.872 74.4785 54.0857 74.4759C54.2995 74.4733 54.5037 74.3872 54.6549 74.2361C54.806 74.0849 54.8921 73.8807 54.8947 73.667C54.8973 73.4532 54.8162 73.247 54.6688 73.0922L48.5242 66.9578C48.2964 66.7237 48.142 66.4281 48.08 66.1074C48.018 65.7867 48.051 65.4549 48.1751 65.1527C48.2992 64.8505 48.5089 64.5912 48.7785 64.4067C49.048 64.2222 49.3656 64.1205 49.6922 64.1141C49.9131 64.1098 50.1324 64.1509 50.3368 64.2348C50.5412 64.3186 50.7262 64.4434 50.8805 64.6016L57.3805 71.0914C57.6523 71.3613 57.8677 71.6826 58.0142 72.0366C58.1606 72.3905 58.2352 72.7701 58.2336 73.1531L58.2438 78.1703L58.2133 80.3539H49.9258C49.9563 78.9828 50.1086 77.3172 48.9812 76.3016L44.5836 71.9141C44.0432 71.3631 43.7374 70.6241 43.7305 69.8523ZM60.2547 84.5078C60.2541 84.7231 60.1683 84.9294 60.016 85.0816C59.8638 85.2339 59.6575 85.3197 59.4422 85.3203H48.4938C48.2785 85.3197 48.0722 85.2339 47.9199 85.0816C47.7677 84.9294 47.6819 84.7231 47.6813 84.5078V82.8016C47.6819 82.5863 47.7677 82.38 47.9199 82.2277C48.0722 82.0755 48.2785 81.9897 48.4938 81.9891H59.4422C59.6575 81.9897 59.8638 82.0755 60.016 82.2277C60.1683 82.38 60.2541 82.5863 60.2547 82.8016V84.5078ZM67.7297 65.3531C67.7596 65.6047 67.736 65.8598 67.6605 66.1017C67.5849 66.3436 67.4591 66.5667 67.2913 66.7566C67.1235 66.9464 66.9175 67.0987 66.6867 67.2034C66.456 67.3081 66.2057 67.3628 65.9524 67.3641H63.0477C62.7942 67.363 62.5439 67.3084 62.313 67.2038C62.0822 67.0991 61.8761 66.9469 61.7083 66.757C61.5404 66.5671 61.4146 66.3438 61.3392 66.1019C61.2637 65.8599 61.2402 65.6048 61.2703 65.3531C61.2714 65.3215 61.2621 65.2905 61.2437 65.2648C61.2254 65.239 61.199 65.2201 61.1688 65.2109C59.2339 64.6572 57.4653 63.6352 56.0195 62.2352C55.918 62.1336 55.7656 62.2758 55.6742 62.3266C55.2627 62.5645 54.774 62.6307 54.314 62.5109C53.854 62.3912 53.4597 62.0951 53.2164 61.6867L51.7641 59.168C51.6388 58.9475 51.5614 58.703 51.5369 58.4506C51.5124 58.1982 51.5414 57.9435 51.6218 57.703C51.7023 57.4625 51.8326 57.2417 52.004 57.0549C52.1755 56.8681 52.3845 56.7195 52.6172 56.6187C52.6437 56.6042 52.6648 56.5816 52.6776 56.5542C52.6904 56.5268 52.6941 56.4961 52.6883 56.4664C52.4404 55.4938 52.3142 54.4943 52.3125 53.4906C52.3135 52.4903 52.4398 51.494 52.6883 50.525C52.6942 50.4939 52.6906 50.4617 52.6779 50.4327C52.6653 50.4037 52.6441 50.3792 52.6172 50.3625C52.3842 50.2621 52.175 50.1137 52.0033 49.9269C51.8316 49.7401 51.7012 49.5192 51.6207 49.2786C51.5402 49.038 51.5113 48.7832 51.536 48.5307C51.5607 48.2782 51.6384 48.0337 51.7641 47.8133L53.2164 45.2945C53.4539 44.8884 53.842 44.5924 54.2965 44.4707C54.751 44.349 55.2351 44.4114 55.6438 44.6445C55.7555 44.7055 55.9078 44.8476 56.0195 44.7461C57.4653 43.3461 59.2339 42.324 61.1688 41.7703C61.1998 41.7624 61.227 41.7438 61.2456 41.7178C61.2642 41.6918 61.2729 41.66 61.2703 41.6281C61.241 41.3766 61.2651 41.1218 61.3408 40.8802C61.4166 40.6386 61.5425 40.4157 61.7101 40.2259C61.8778 40.0362 62.0836 39.8839 62.314 39.7791C62.5445 39.6742 62.7945 39.619 63.0477 39.6172H65.9524C66.2058 39.6182 66.4562 39.6728 66.687 39.7775C66.9178 39.8821 67.1239 40.0344 67.2918 40.2243C67.4596 40.4142 67.5854 40.6374 67.6609 40.8794C67.7364 41.1213 67.7598 41.3765 67.7297 41.6281C67.7271 41.66 67.7359 41.6918 67.7545 41.7178C67.7731 41.7438 67.8003 41.7624 67.8313 41.7703C69.7661 42.324 71.5347 43.3461 72.9805 44.7461C73.0049 44.765 73.0344 44.7761 73.0652 44.7779C73.0961 44.7798 73.1267 44.7722 73.1531 44.7563C73.3581 44.6096 73.5912 44.5069 73.8377 44.4544C74.0842 44.402 74.3389 44.401 74.5858 44.4516C74.8327 44.5021 75.0665 44.603 75.2726 44.7481C75.4788 44.8931 75.6527 45.0792 75.7836 45.2945L77.236 47.8133C77.3612 48.0338 77.4386 48.2782 77.4631 48.5306C77.4876 48.783 77.4587 49.0378 77.3782 49.2782C77.2977 49.5187 77.1675 49.7396 76.996 49.9264C76.8245 50.1132 76.6156 50.2618 76.3828 50.3625C76.356 50.3792 76.3348 50.4037 76.3221 50.4327C76.3094 50.4617 76.3058 50.4939 76.3117 50.525C76.8094 52.4742 76.8094 54.5172 76.3117 56.4664C76.2711 56.5984 76.5047 56.6695 76.586 56.7406C76.7888 56.8566 76.9667 57.0115 77.1093 57.1966C77.2519 57.3816 77.3565 57.5931 77.4169 57.8188C77.4774 58.0445 77.4925 58.2799 77.4614 58.5115C77.4304 58.7431 77.3537 58.9662 77.236 59.168L75.7836 61.6867C75.6565 61.9019 75.4861 62.0883 75.283 62.2341C75.08 62.3798 74.8489 62.4817 74.6043 62.5333C74.3598 62.5849 74.1072 62.585 73.8626 62.5337C73.618 62.4824 73.3868 62.3807 73.1836 62.2352C73.082 62.1539 72.95 62.2352 72.8688 62.3367C71.4443 63.6954 69.7072 64.6825 67.811 65.2109C67.7868 65.2262 67.7668 65.2472 67.7527 65.2719C67.7385 65.2967 67.7306 65.3246 67.7297 65.3531ZM81.3188 84.5078C81.3181 84.7231 81.2323 84.9294 81.0801 85.0816C80.9279 85.2339 80.7216 85.3197 80.5063 85.3203H69.5578C69.3425 85.3197 69.1362 85.2339 68.984 85.0816C68.8318 84.9294 68.746 84.7231 68.7453 84.5078V82.8016C68.746 82.5863 68.8318 82.38 68.984 82.2277C69.1362 82.0755 69.3425 81.9897 69.5578 81.9891H80.5063C80.7216 81.9897 80.9279 82.0755 81.0801 82.2277C81.2323 82.38 81.3181 82.5863 81.3188 82.8016V84.5078ZM85.2695 69.8523C85.2626 70.6241 84.9568 71.3631 84.4164 71.9141L80.0188 76.3117C78.9016 77.307 79.0438 79.0133 79.0742 80.3539H70.7867C70.7563 78.9625 70.7664 74.6156 70.7664 73.1531C70.7643 72.7724 70.8378 72.3951 70.9825 72.0429C71.1272 71.6908 71.3402 71.3708 71.6094 71.1016L78.1195 64.6016C78.4277 64.3006 78.8407 64.1311 79.2714 64.129C79.7022 64.1269 80.1169 64.2922 80.428 64.5901C80.739 64.888 80.9222 65.2952 80.9387 65.7256C80.9552 66.156 80.8038 66.576 80.5164 66.8969C80.486 66.9578 74.382 73.0414 74.3313 73.0922C74.1837 73.2469 74.1025 73.4533 74.1051 73.6671C74.1076 73.8809 74.1937 74.0852 74.3449 74.2364C74.4961 74.3876 74.7004 74.4736 74.9142 74.4762C75.128 74.4787 75.3343 74.3976 75.4891 74.25L81.6438 68.0953C82.1901 67.5318 82.5185 66.7927 82.5706 66.0096C82.6227 65.2265 82.395 64.4504 81.9281 63.8195L81.9891 56.1211C81.9716 55.8981 81.9992 55.674 82.0701 55.4619C82.141 55.2498 82.2538 55.0541 82.4018 54.8865C82.5499 54.7188 82.7301 54.5827 82.9318 54.4861C83.1335 54.3896 83.3526 54.3345 83.576 54.3243C83.7994 54.3141 84.0226 54.3489 84.2323 54.4267C84.442 54.5044 84.6339 54.6235 84.7966 54.7769C84.9593 54.9304 85.0895 55.1149 85.1795 55.3197C85.2695 55.5244 85.3174 55.7451 85.3203 55.9688L85.2695 69.8523Z" fill="#F5F6F7"/>
<path d="M64.5 45.7412C62.9673 45.7412 61.4691 46.1957 60.1947 47.0472C58.9204 47.8987 57.9271 49.1089 57.3406 50.5249C56.7541 51.9409 56.6006 53.499 56.8996 55.0022C57.1986 56.5054 57.9367 57.8862 59.0204 58.97C60.1042 60.0537 61.485 60.7917 62.9882 61.0908C64.4914 61.3898 66.0495 61.2363 67.4655 60.6498C68.8814 60.0633 70.0917 59.07 70.9432 57.7957C71.7947 56.5213 72.2492 55.0231 72.2492 53.4904C72.2478 51.4356 71.4309 49.4654 69.978 48.0124C68.525 46.5594 66.5548 45.7426 64.5 45.7412ZM64.5 59.6146C63.2887 59.6146 62.1046 59.2555 61.0975 58.5825C60.0904 57.9096 59.3054 56.9531 58.8419 55.8341C58.3784 54.715 58.2571 53.4836 58.4934 52.2957C58.7297 51.1077 59.313 50.0164 60.1695 49.16C61.026 48.3035 62.1172 47.7202 63.3052 47.4839C64.4932 47.2476 65.7245 47.3689 66.8436 47.8324C67.9626 48.2959 68.9191 49.0809 69.5921 50.088C70.265 51.0951 70.6242 52.2792 70.6242 53.4904C70.6241 55.1146 69.9788 56.6723 68.8303 57.8208C67.6818 58.9693 66.1242 59.6145 64.5 59.6146Z" fill="#F5F6F7"/>
<path d="M66.7751 51.0123L63.5454 54.242L62.2251 52.9115C62.0704 52.7602 61.8626 52.6754 61.6461 52.6754C61.4297 52.6754 61.2219 52.7602 61.0672 52.9115C60.9901 52.9869 60.9288 53.077 60.8869 53.1764C60.8451 53.2758 60.8235 53.3826 60.8235 53.4904C60.8235 53.5983 60.8451 53.7051 60.8869 53.8045C60.9288 53.9039 60.9901 53.994 61.0672 54.0693L62.9766 55.9686C63.051 56.0457 63.1401 56.107 63.2387 56.1489C63.3373 56.1908 63.4433 56.2123 63.5504 56.2123C63.6576 56.2123 63.7636 56.1908 63.8622 56.1489C63.9608 56.107 64.0499 56.0457 64.1243 55.9686L67.9329 52.16C68.01 52.0856 68.0713 51.9965 68.1132 51.8979C68.1551 51.7993 68.1766 51.6933 68.1766 51.5861C68.1766 51.479 68.1551 51.373 68.1132 51.2744C68.0713 51.1758 68.01 51.0867 67.9329 51.0123C67.8575 50.9352 67.7674 50.8738 67.668 50.832C67.5686 50.7901 67.4618 50.7686 67.354 50.7686C67.2461 50.7686 67.1393 50.7901 67.0399 50.832C66.9405 50.8738 66.8504 50.9352 66.7751 51.0123Z" fill="#F5F6F7"/>
</svg>
