<svg width="128" height="128" viewBox="0 0 128 128" fill="none" xmlns="http://www.w3.org/2000/svg">
<rect width="128" height="128" rx="64" fill="#DB9935"/>
<g clip-path="url(#clip0_2285_699)">
<path d="M73.8358 42.6004C73.9667 42.6593 74.1085 42.69 74.2521 42.6905C74.4318 42.6901 74.608 42.6414 74.7624 42.5494C74.9168 42.4574 75.0435 42.3256 75.1293 42.1677C75.2152 42.0098 75.2569 41.8318 75.2502 41.6522C75.2434 41.4726 75.1885 41.2982 75.0911 41.1472C74.9936 40.9962 74.8574 40.8742 74.6965 40.7941C74.5357 40.7139 74.3563 40.6785 74.1771 40.6916C73.9979 40.7048 73.8255 40.7659 73.678 40.8686C73.5306 40.9713 73.4135 41.1119 73.3392 41.2754C73.2802 41.4059 73.2494 41.5473 73.249 41.6905C73.2482 41.8827 73.3032 42.071 73.4074 42.2325C73.5115 42.394 73.6603 42.5218 73.8358 42.6004Z" fill="#F5F6F7"/>
<path d="M88.6654 62.9248C88.4678 62.9264 88.275 62.9865 88.1115 63.0975C87.948 63.2086 87.8211 63.3656 87.7467 63.5487C87.6724 63.7319 87.654 63.9329 87.6939 64.1265C87.7338 64.3201 87.8301 64.4975 87.9708 64.6364C88.1114 64.7753 88.2901 64.8693 88.4841 64.9067C88.6782 64.9441 88.879 64.9232 89.0612 64.8465C89.2434 64.7698 89.3988 64.6409 89.5077 64.476C89.6167 64.3111 89.6743 64.1176 89.6733 63.9199C89.6725 63.7884 89.6458 63.6583 89.5947 63.5371C89.5436 63.4159 89.4691 63.306 89.3755 63.2136C89.2819 63.1212 89.171 63.0481 89.0492 62.9986C88.9274 62.949 88.797 62.924 88.6654 62.9248Z" fill="#F5F6F7"/>
<path d="M76.7895 44.205C76.9485 44.3105 77.1354 44.3663 77.3263 44.3652C77.4946 44.3651 77.6603 44.323 77.8083 44.2427C77.9562 44.1624 78.0818 44.0464 78.1735 43.9052C78.2452 43.7947 78.2943 43.671 78.3179 43.5414C78.3416 43.4118 78.3394 43.2788 78.3114 43.1501C78.2835 43.0214 78.2303 42.8994 78.1551 42.7913C78.0798 42.6832 77.9839 42.5911 77.8728 42.5202C77.6478 42.378 77.3757 42.3302 77.1157 42.3873C76.8557 42.4444 76.6287 42.6017 76.4839 42.8251C76.412 42.9354 76.3628 43.0589 76.3392 43.1884C76.3157 43.3179 76.3182 43.4508 76.3466 43.5793C76.3751 43.7078 76.4289 43.8294 76.505 43.9368C76.581 44.0443 76.6778 44.1354 76.7895 44.205Z" fill="#F5F6F7"/>
<path d="M89.4276 67.55C89.4324 67.4951 89.4378 67.445 89.4378 67.3953C89.4325 67.1431 89.3325 66.9021 89.1579 66.7201C88.9832 66.5381 88.7465 66.4283 88.4948 66.4126C88.243 66.3969 87.9945 66.4763 87.7985 66.6352C87.6026 66.794 87.4734 67.0207 87.4367 67.2703H87.4416C87.4335 67.3214 87.4302 67.3733 87.4318 67.425C87.4352 67.6638 87.5241 67.8935 87.6823 68.0724C87.8406 68.2513 88.0577 68.3675 88.2943 68.4001C88.3409 68.406 88.3878 68.4093 88.4348 68.4101C88.6759 68.4093 88.9086 68.3221 89.0908 68.1643C89.273 68.0065 89.3925 67.7885 89.4276 67.55Z" fill="#F5F6F7"/>
<path d="M88.6653 71.1053C88.6892 71.0155 88.7009 70.923 88.7001 70.8301C88.701 70.589 88.6149 70.3557 88.4574 70.1731C88.3 69.9904 88.082 69.8708 87.8433 69.8361C87.6047 69.8014 87.3616 69.8541 87.1588 69.9844C86.9559 70.1147 86.8069 70.3138 86.7391 70.5452C86.712 70.6345 86.6969 70.7269 86.6941 70.8201C86.6941 71.0381 86.7651 71.2502 86.8963 71.4243C87.0275 71.5984 87.2118 71.7251 87.4214 71.7852C87.5105 71.8132 87.6036 71.8267 87.6971 71.8253C87.9143 71.825 88.1258 71.7548 88.3001 71.6252C88.4745 71.4955 88.6025 71.3133 88.6653 71.1053Z" fill="#F5F6F7"/>
<path d="M88.4092 61.4401C88.4579 61.4419 88.5067 61.4386 88.5547 61.4301C88.7916 61.3971 89.0086 61.2798 89.1661 61.0999C89.3235 60.9199 89.4109 60.6892 89.4123 60.4501C89.4139 60.3998 89.4106 60.3496 89.4025 60.2999C89.3665 60.0495 89.2372 59.8219 89.0405 59.6628C88.8438 59.5036 88.5942 59.4247 88.3418 59.4417C88.0893 59.4588 87.8526 59.5706 87.6792 59.7548C87.5057 59.939 87.4082 60.1819 87.4062 60.4349C87.4064 60.4854 87.4115 60.5357 87.4214 60.5851H87.4165C87.4517 60.8231 87.5714 61.0404 87.7537 61.1974C87.9359 61.3544 88.1686 61.4406 88.4092 61.4401Z" fill="#F5F6F7"/>
<path d="M87.3715 56.0752C87.163 56.1355 86.9799 56.2625 86.8503 56.4367C86.7207 56.611 86.6518 56.8229 86.6541 57.04C86.6548 57.1331 86.6683 57.2257 86.6943 57.3151C86.7567 57.5219 86.8841 57.7031 87.0575 57.8318C87.2309 57.9606 87.4411 58.0302 87.6571 58.0302C87.7539 58.0317 87.8504 58.0182 87.9431 57.9902C88.152 57.9288 88.3351 57.8008 88.4646 57.6257C88.594 57.4506 88.6627 57.238 88.6601 57.0202C88.6592 56.9271 88.6457 56.8345 88.6199 56.7451C88.5821 56.619 88.5197 56.5017 88.4365 56.3998C88.3532 56.2979 88.2507 56.2134 88.1347 56.1512C88.0187 56.0889 87.8917 56.0502 87.7607 56.0372C87.6297 56.0241 87.4975 56.037 87.3715 56.0752Z" fill="#F5F6F7"/>
<path d="M76.905 83.72C76.7635 83.8105 76.6473 83.9356 76.5675 84.0834C76.4876 84.2313 76.4467 84.397 76.4485 84.565C76.4489 84.6962 76.4752 84.826 76.5258 84.9471C76.5765 85.0682 76.6505 85.178 76.7437 85.2705C76.8368 85.3629 76.9473 85.436 77.0688 85.4857C77.1902 85.5353 77.3203 85.5605 77.4515 85.5598C77.7183 85.5582 77.9735 85.451 78.1614 85.2618C78.3494 85.0725 78.4548 84.8166 78.4545 84.5498C78.4531 84.3599 78.3974 84.1743 78.2939 84.0149C78.1483 83.7923 77.9205 83.6363 77.6603 83.5811C77.4 83.5258 77.1285 83.5757 76.905 83.72Z" fill="#F5F6F7"/>
<path d="M51.3631 83.7701C51.1402 83.6263 50.8695 83.5766 50.6102 83.6319C50.3508 83.6872 50.1239 83.8429 49.979 84.065C49.874 84.2255 49.8184 84.4133 49.8189 84.6051C49.8179 84.7734 49.8597 84.9393 49.9404 85.0871C50.0211 85.2349 50.138 85.3598 50.2802 85.45H50.2748C50.438 85.5548 50.6279 85.6103 50.8219 85.6099C50.9897 85.6109 51.1551 85.5692 51.3025 85.4887C51.4498 85.4083 51.5743 85.2917 51.6642 85.15C51.7699 84.9916 51.8258 84.8054 51.8249 84.6151C51.8258 84.4466 51.7839 84.2807 51.7031 84.1329C51.6223 83.9851 51.5053 83.8603 51.3631 83.7701Z" fill="#F5F6F7"/>
<path d="M47.2607 81.8599C47.1017 82.0391 47.0142 82.2705 47.0149 82.5101C47.0146 82.642 47.0404 82.7726 47.0907 82.8945C47.141 83.0164 47.2148 83.1272 47.308 83.2205C47.4011 83.3139 47.5118 83.3879 47.6336 83.4385C47.7554 83.489 47.886 83.515 48.0179 83.515C48.1614 83.5143 48.3031 83.4832 48.4337 83.4238C48.5643 83.3643 48.6809 83.2778 48.7756 83.17C48.9338 82.9885 49.021 82.7558 49.0209 82.515C49.0203 82.371 48.9891 82.2289 48.9295 82.0979C48.8699 81.9669 48.7832 81.85 48.6752 81.755C48.4735 81.5816 48.2114 81.4953 47.9462 81.515C47.6811 81.5346 47.4345 81.6587 47.2607 81.8599Z" fill="#F5F6F7"/>
<path d="M70.6862 41.4351C70.7777 41.4611 70.8722 41.4746 70.9673 41.4752C71.1837 41.474 71.3941 41.4034 71.5674 41.2738C71.7407 41.1442 71.8679 40.9625 71.9302 40.7552C71.9554 40.6657 71.9689 40.5733 71.9703 40.4803C71.9708 40.2388 71.8841 40.0053 71.7263 39.8226C71.5684 39.6398 71.35 39.5202 71.111 39.4855C70.872 39.4508 70.6286 39.5035 70.4253 39.6339C70.2221 39.7642 70.0726 39.9635 70.0045 40.1951C69.9759 40.284 69.9624 40.377 69.9643 40.4703C69.9628 40.6879 70.0326 40.8999 70.1629 41.0741C70.2933 41.2484 70.477 41.3751 70.6862 41.4351Z" fill="#F5F6F7"/>
<path d="M54.3122 85.38C54.1605 85.3093 53.9934 85.2779 53.8264 85.2887C53.6593 85.2995 53.4977 85.3521 53.3563 85.4418C53.2149 85.5314 53.0984 85.6552 53.0174 85.8017C52.9365 85.9482 52.8936 86.1128 52.8929 86.2802C52.8902 86.4734 52.9444 86.6631 53.0487 86.8258C53.153 86.9884 53.3029 87.1168 53.4797 87.1949C53.6094 87.2578 53.7518 87.2902 53.8959 87.2899C54.1246 87.2907 54.3467 87.213 54.5251 87.0699C54.7034 86.9267 54.8273 86.7267 54.876 86.5032C54.9247 86.2798 54.8953 86.0464 54.7927 85.8419C54.6901 85.6375 54.5205 85.4745 54.3122 85.38Z" fill="#F5F6F7"/>
<path d="M70.8217 86.5252C70.6133 86.5875 70.4307 86.7157 70.3014 86.8906C70.172 87.0655 70.1028 87.2776 70.1043 87.4951C70.1073 87.5884 70.1224 87.6809 70.1493 87.7703C70.2108 87.9767 70.3373 88.1577 70.5099 88.2864C70.6825 88.4152 70.892 88.4849 71.1073 88.4851C71.206 88.485 71.3041 88.4698 71.3982 88.4402C71.6031 88.3808 71.7832 88.2566 71.9116 88.0862C72.0399 87.9158 72.1097 87.7085 72.1103 87.4951C72.1149 87.3952 72.1013 87.2953 72.0701 87.2002C72.0327 87.0738 71.9707 86.956 71.8876 86.8536C71.8046 86.7512 71.7021 86.6662 71.5861 86.6035C71.4701 86.5408 71.3429 86.5016 71.2117 86.4881C71.0806 86.4747 70.948 86.4873 70.8217 86.5252Z" fill="#F5F6F7"/>
<path d="M67.5419 87.25C67.3054 87.2839 67.0888 87.4013 66.9315 87.5811C66.7742 87.7609 66.6865 87.9911 66.6843 88.23C66.6844 88.2821 66.6893 88.334 66.699 88.3851C66.7341 88.6223 66.8532 88.839 67.0345 88.9959C67.2159 89.1528 67.4475 89.2395 67.6873 89.2401C67.7373 89.2401 67.7873 89.2349 67.8377 89.2301C68.0742 89.195 68.2902 89.0763 68.4466 88.8955C68.6031 88.7148 68.6895 88.484 68.6904 88.245C68.6921 88.1948 68.6886 88.1445 68.6801 88.0951C68.6613 87.9646 68.6168 87.8392 68.5494 87.7261C68.4819 87.6129 68.3927 87.5142 68.2869 87.4356C68.1811 87.3571 68.0608 87.3003 67.9329 87.2684C67.8051 87.2365 67.6722 87.2303 67.5419 87.25Z" fill="#F5F6F7"/>
<path d="M63.8546 87.5103C63.6181 87.5441 63.4016 87.6616 63.2442 87.8414C63.0869 88.0211 62.9992 88.2514 62.9971 88.4903C62.9971 88.5423 63.002 88.5942 63.0118 88.6453C63.0469 88.8825 63.1659 89.0993 63.3473 89.2562C63.5287 89.4131 63.7603 89.4997 64.0001 89.5003C64.05 89.5003 64.1 89.4951 64.1504 89.4903C64.3869 89.4552 64.6029 89.3365 64.7594 89.1557C64.9158 88.975 65.0023 88.7442 65.0031 88.5052C65.0048 88.455 65.0013 88.4047 64.9928 88.3553C64.974 88.2248 64.9296 88.0994 64.8621 87.9863C64.7946 87.8731 64.7054 87.7744 64.5996 87.6959C64.4938 87.6173 64.3735 87.5605 64.2457 87.5287C64.1178 87.4968 63.9849 87.4906 63.8546 87.5103Z" fill="#F5F6F7"/>
<path d="M60.7412 87.2647C60.4789 87.2267 60.2123 87.2944 59.9998 87.4528C59.7873 87.6112 59.6464 87.8475 59.6079 88.1097C59.603 88.1646 59.5981 88.2147 59.5981 88.2647C59.6022 88.5039 59.6911 88.7338 59.8492 88.9133C60.0072 89.0929 60.2239 89.2104 60.4606 89.2447C60.5073 89.2505 60.5542 89.2538 60.6012 89.2547C60.8424 89.2549 61.0757 89.168 61.258 89.0101C61.4404 88.8521 61.5596 88.6337 61.5939 88.3949C61.6024 88.3453 61.6059 88.295 61.6042 88.2447C61.6024 88.0049 61.5141 87.7737 61.3556 87.5937C61.1971 87.4136 60.9789 87.2968 60.7412 87.2647Z" fill="#F5F6F7"/>
<path d="M57.4613 86.5549C57.3353 86.517 57.2031 86.5045 57.0723 86.5179C56.9414 86.5314 56.8145 86.5707 56.6989 86.6334C56.5833 86.6962 56.4813 86.7812 56.3987 86.8836C56.3161 86.986 56.2546 87.1037 56.2178 87.2299C56.1896 87.3188 56.176 87.4116 56.1776 87.5048C56.1762 87.7217 56.2454 87.9332 56.3747 88.1073C56.5041 88.2814 56.6866 88.4087 56.8946 88.4699C56.9873 88.4979 57.0838 88.5114 57.1806 88.51C57.3966 88.5099 57.6068 88.4403 57.7802 88.3116C57.9536 88.1828 58.081 88.0016 58.1435 87.7949C58.1666 87.7049 58.1801 87.6128 58.1836 87.52C58.1847 87.3024 58.1147 87.0905 57.9843 86.9163C57.8539 86.7421 57.6703 86.6152 57.4613 86.5549Z" fill="#F5F6F7"/>
<path d="M60.5509 40.7554C60.5995 40.7546 60.648 40.7513 60.6963 40.7454C60.9325 40.7108 61.1486 40.5931 61.3058 40.4135C61.4629 40.2338 61.5509 40.004 61.5539 39.7654C61.5555 39.7135 61.5522 39.6616 61.5441 39.6103C61.5067 39.361 61.3769 39.1349 61.1804 38.9769C60.984 38.8189 60.7353 38.7406 60.4837 38.7577C60.2322 38.7747 59.9963 38.8857 59.8229 39.0687C59.6495 39.2517 59.5513 39.4933 59.5479 39.7453C59.5479 39.7954 59.5527 39.8454 59.5581 39.9004C59.5942 40.138 59.7141 40.3548 59.8962 40.5117C60.0783 40.6685 60.3105 40.755 60.5509 40.7554Z" fill="#F5F6F7"/>
<path d="M57.1303 41.5054C57.2274 41.5052 57.3238 41.49 57.4163 41.4605C57.6247 41.3982 57.8072 41.27 57.9365 41.095C58.0658 40.9201 58.1349 40.708 58.1333 40.4905C58.1332 40.3986 58.1179 40.3074 58.0882 40.2205C58.0195 39.9891 57.8694 39.7903 57.6657 39.6607C57.4619 39.5312 57.2183 39.4796 56.9795 39.5155C56.7408 39.5514 56.5231 39.6724 56.3665 39.8561C56.2098 40.0399 56.1249 40.274 56.1272 40.5154C56.1301 40.7793 56.2371 41.0315 56.425 41.2169C56.6128 41.4023 56.8663 41.506 57.1303 41.5054Z" fill="#F5F6F7"/>
<path d="M64.0462 40.5005C64.2439 40.4999 64.4369 40.4407 64.601 40.3305C64.765 40.2203 64.8927 40.0639 64.9679 39.8811C65.0432 39.6983 65.0626 39.4973 65.0236 39.3036C64.9847 39.1098 64.8892 38.9319 64.7493 38.7923C64.6093 38.6528 64.4311 38.5578 64.2372 38.5195C64.0433 38.4811 63.8424 38.5011 63.6598 38.5769C63.4773 38.6527 63.3213 38.7808 63.2115 38.9452C63.1018 39.1096 63.0432 39.3028 63.0432 39.5005C63.0434 39.632 63.0695 39.7622 63.12 39.8837C63.1705 40.0051 63.2444 40.1154 63.3375 40.2083C63.4307 40.3012 63.5412 40.3748 63.6628 40.4249C63.7844 40.475 63.9147 40.5007 64.0462 40.5005Z" fill="#F5F6F7"/>
<path d="M67.4015 40.7301C67.4482 40.7358 67.4951 40.7392 67.5421 40.7401C67.7833 40.7402 68.0166 40.6533 68.1989 40.4953C68.3813 40.3373 68.5005 40.1188 68.5348 39.8799C68.5397 39.8299 68.5451 39.7749 68.5451 39.7249C68.5404 39.4729 68.441 39.2319 68.2668 39.0499C68.0925 38.8678 67.8561 38.7579 67.6046 38.7422C67.353 38.7264 67.1048 38.8059 66.9092 38.9649C66.7136 39.1238 66.5849 39.3505 66.5488 39.5999C66.5405 39.6512 66.5373 39.7031 66.539 39.7549C66.5424 39.9938 66.6313 40.2234 66.7896 40.4023C66.9478 40.5812 67.1649 40.6975 67.4015 40.7301Z" fill="#F5F6F7"/>
<path d="M53.8504 42.7304C53.996 42.7323 54.1401 42.7015 54.2721 42.6403C54.4468 42.5599 54.5945 42.4308 54.6977 42.2685C54.8008 42.1061 54.8549 41.9175 54.8534 41.7252C54.8535 41.5837 54.8228 41.4438 54.7633 41.3153C54.7084 41.1958 54.6304 41.0883 54.5338 40.999C54.4373 40.9096 54.324 40.8402 54.2006 40.7947C54.0772 40.7492 53.946 40.7285 53.8146 40.7337C53.6831 40.739 53.554 40.7701 53.4346 40.8253H53.4292C53.2217 40.9203 53.0529 41.0835 52.9511 41.2878C52.8493 41.4921 52.8207 41.7252 52.87 41.948C52.9192 42.1709 53.0435 42.3702 53.2219 42.5125C53.4003 42.6549 53.6222 42.7318 53.8504 42.7304Z" fill="#F5F6F7"/>
<path d="M79.588 81.6998C79.4885 81.7856 79.407 81.8902 79.3481 82.0076C79.2892 82.125 79.254 82.2529 79.2447 82.3839C79.2354 82.5149 79.252 82.6465 79.2937 82.7711C79.3354 82.8956 79.4013 83.0107 79.4875 83.1098C79.6218 83.264 79.8 83.3735 79.9982 83.4236C80.1965 83.4738 80.4053 83.4622 80.5968 83.3905C80.7882 83.3187 80.9532 83.1902 81.0696 83.0221C81.1861 82.854 81.2484 82.6543 81.2482 82.4498C81.249 82.2088 81.1616 81.9758 81.0024 81.7948C80.8272 81.595 80.58 81.4727 80.3148 81.4549C80.0496 81.4371 79.7882 81.5252 79.588 81.6998Z" fill="#F5F6F7"/>
<path d="M50.7816 44.415C50.9618 44.4153 51.1387 44.367 51.2938 44.2752C51.4488 44.1833 51.5762 44.0514 51.6624 43.8931C51.7487 43.7349 51.7906 43.5564 51.7839 43.3763C51.7771 43.1962 51.7218 43.0213 51.6239 42.8701C51.5055 42.689 51.3317 42.5511 51.1285 42.4767C50.9254 42.4024 50.7036 42.3956 50.4963 42.4574C50.2889 42.5192 50.1071 42.6463 49.9778 42.8197C49.8485 42.9932 49.7786 43.2038 49.7786 43.4201C49.7805 43.6115 49.8359 43.7986 49.9387 43.9601C50.0307 44.0997 50.1558 44.2143 50.3029 44.2937C50.45 44.373 50.6144 44.4147 50.7816 44.415Z" fill="#F5F6F7"/>
<path d="M73.9659 85.34C73.7906 85.4196 73.6422 85.5485 73.5389 85.7109C73.4356 85.8734 73.3818 86.0624 73.3841 86.255C73.3841 86.3966 73.4151 86.5365 73.4747 86.6649C73.5561 86.8382 73.6851 86.9847 73.8467 87.0874C74.0082 87.1901 74.1956 87.2448 74.3871 87.245C74.5325 87.247 74.6764 87.2163 74.8083 87.1551C74.9843 87.075 75.1332 86.9453 75.2365 86.7819C75.3399 86.6184 75.3933 86.4283 75.3901 86.235C75.3898 86.0929 75.3573 85.9528 75.2951 85.825C75.2398 85.7058 75.1616 85.5986 75.0648 85.5096C74.968 85.4207 74.8547 85.3517 74.7312 85.3066C74.6077 85.2616 74.4766 85.2413 74.3452 85.247C74.2139 85.2528 74.085 85.2843 73.9659 85.34Z" fill="#F5F6F7"/>
<path d="M92.1711 87.0829L94.1438 85.4992C94.2998 85.3739 94.4146 85.2048 94.4734 85.0135C94.5322 84.8223 94.5322 84.6178 94.4735 84.4266C94.4148 84.2353 94.3 84.0661 94.1441 83.9408C93.9881 83.8155 93.7981 83.7399 93.5987 83.7238L84.9932 83.0036C84.7298 82.9812 84.4681 83.0638 84.2653 83.2335C84.0625 83.4032 83.9349 83.6461 83.9104 83.9094L83.1577 92.1407C83.1404 92.3367 83.1811 92.5333 83.2748 92.7063C83.3684 92.8792 83.5108 93.0208 83.6843 93.1135C83.8577 93.2062 84.0546 93.2458 84.2504 93.2275C84.4463 93.2091 84.6324 93.1336 84.7856 93.0104L86.8122 91.3839L90.4104 95.6442C90.5812 95.8477 90.8259 95.975 91.0906 95.9982C91.3553 96.0213 91.6183 95.9384 91.8219 95.7676C92.0254 95.5968 92.1528 95.3521 92.1759 95.0874C92.199 94.8227 92.1161 94.5596 91.9453 94.3561L87.7148 89.3476C87.5456 89.1475 87.3049 89.0215 87.0441 88.9963C86.7832 88.9711 86.5229 89.0488 86.3185 89.2128L85.3704 89.9736L85.818 85.0798L90.9344 85.508L90.0955 86.1816C89.9899 86.2661 89.9025 86.3712 89.8388 86.4905C89.7751 86.6098 89.7363 86.7409 89.7248 86.8756C89.7133 87.0104 89.7293 87.1461 89.7719 87.2745C89.8145 87.4029 89.8828 87.5213 89.9726 87.6225L94.4381 92.6622C94.6137 92.8616 94.8613 92.9831 95.1265 92.9999C95.3916 93.0167 95.6526 92.9275 95.852 92.7519C96.0514 92.5763 96.1728 92.3287 96.1897 92.0636C96.2065 91.7984 96.1173 91.5374 95.9417 91.3381L92.1711 87.0829Z" fill="#F5F6F7"/>
<path d="M84.9085 45.0003C84.9365 45.0003 84.9648 44.9991 84.9932 44.9969L93.5987 44.2767C93.7981 44.2606 93.9881 44.185 94.1441 44.0597C94.3 43.9344 94.4148 43.7652 94.4735 43.574C94.5323 43.3827 94.5322 43.1782 94.4734 42.987C94.4146 42.7958 94.2998 42.6266 94.1438 42.5013L92.1711 40.9176L95.9417 36.6625C96.1173 36.4631 96.2065 36.2021 96.1897 35.937C96.1729 35.6718 96.0514 35.4242 95.852 35.2486C95.6526 35.073 95.3917 34.9838 95.1265 35.0006C94.8613 35.0174 94.6137 35.1389 94.4381 35.3383L89.9726 40.378C89.8828 40.4792 89.8145 40.5976 89.7719 40.726C89.7293 40.8544 89.7133 40.9901 89.7248 41.1249C89.7363 41.2597 89.7751 41.3907 89.8388 41.51C89.9025 41.6293 89.9899 41.7344 90.0955 41.819L90.9344 42.4925L85.818 42.9208L85.3704 38.027L86.3185 38.7877C86.5229 38.9518 86.7832 39.0295 87.0441 39.0044C87.3049 38.9792 87.5456 38.8531 87.7148 38.653L91.9453 33.6444C92.1161 33.4409 92.199 33.1778 92.1759 32.9131C92.1528 32.6484 92.0254 32.4038 91.8219 32.233C91.6183 32.0622 91.3553 31.9792 91.0906 32.0023C90.8259 32.0255 90.5812 32.1528 90.4104 32.3564L86.8122 36.6166L84.7856 34.9901C84.6324 34.8669 84.4463 34.7914 84.2504 34.773C84.0546 34.7547 83.8577 34.7943 83.6843 34.887C83.5108 34.9797 83.3684 35.1213 83.2748 35.2942C83.1811 35.4672 83.1404 35.6639 83.1577 35.8598L83.9104 44.0912C83.9336 44.3398 84.0488 44.5709 84.2334 44.739C84.418 44.9072 84.6588 45.0004 84.9085 45.0003Z" fill="#F5F6F7"/>
<path d="M43.1999 83.0034L34.5944 83.7236C34.395 83.7397 34.205 83.8153 34.049 83.9406C33.8931 84.0659 33.7783 84.2351 33.7196 84.4264C33.6609 84.6176 33.6609 84.8221 33.7197 85.0133C33.7785 85.2046 33.8933 85.3737 34.0493 85.499L36.0221 87.0827L32.2515 91.3378C32.0759 91.5372 31.9867 91.7982 32.0035 92.0633C32.0203 92.3285 32.1418 92.5761 32.3411 92.7517C32.5405 92.9273 32.8015 93.0165 33.0666 92.9997C33.3318 92.9828 33.5794 92.8614 33.755 92.662L38.2206 87.6222C38.3104 87.5211 38.3786 87.4027 38.4212 87.2743C38.4638 87.1459 38.4799 87.0102 38.4684 86.8754C38.4569 86.7406 38.4181 86.6096 38.3543 86.4902C38.2906 86.3709 38.2033 86.2658 38.0976 86.1813L37.2587 85.5078L42.3751 85.0795L42.8228 89.9733L41.8746 89.2126C41.6701 89.0489 41.4098 88.9713 41.1491 88.9965C40.8884 89.0217 40.6477 89.1475 40.4783 89.3473L36.2478 94.3558C36.078 94.5595 35.9957 94.8222 36.0192 95.0863C36.0427 95.3505 36.17 95.5946 36.3731 95.7651C36.5763 95.9356 36.8387 96.0185 37.103 95.9958C37.3672 95.9731 37.6116 95.8466 37.7827 95.6439L41.3809 91.3837L43.4075 93.0101C43.5608 93.1334 43.7469 93.2089 43.9427 93.2272C44.1385 93.2456 44.3354 93.2059 44.5089 93.1133C44.6823 93.0206 44.8247 92.879 44.9184 92.706C45.012 92.5331 45.0527 92.3364 45.0355 92.1405L44.2827 83.9091C44.2575 83.6461 44.1298 83.4036 43.9271 83.2341C43.7244 83.0646 43.4632 82.9817 43.1999 83.0034Z" fill="#F5F6F7"/>
<path d="M36.0221 40.9176L34.0493 42.5013C33.8933 42.6266 33.7785 42.7957 33.7197 42.987C33.6609 43.1782 33.6609 43.3827 33.7196 43.5739C33.7783 43.7652 33.8931 43.9344 34.049 44.0597C34.205 44.185 34.395 44.2606 34.5944 44.2767L43.1999 44.9969C43.2283 44.9991 43.2567 45.0003 43.2846 45.0003C43.5343 45.0004 43.7751 44.9072 43.9597 44.739C44.1443 44.5709 44.2595 44.3398 44.2827 44.0912L45.0355 35.8598C45.0527 35.6639 45.012 35.4672 44.9184 35.2942C44.8247 35.1213 44.6823 34.9797 44.5089 34.887C44.3354 34.7943 44.1385 34.7547 43.9427 34.773C43.7469 34.7914 43.5608 34.8669 43.4075 34.9901L41.3809 36.6166L37.7827 32.3564C37.6119 32.1528 37.3672 32.0255 37.1025 32.0023C36.8378 31.9792 36.5748 32.0622 36.3712 32.233C36.1677 32.4038 36.0404 32.6484 36.0172 32.9131C35.9941 33.1778 36.077 33.4409 36.2478 33.6444L40.4783 38.653C40.6476 38.8529 40.8883 38.9788 41.1491 39.004C41.4099 39.0291 41.6702 38.9516 41.8746 38.7877L42.8228 38.027L42.3751 42.9208L37.2587 42.4925L38.0976 41.819C38.2033 41.7345 38.2906 41.6294 38.3543 41.51C38.4181 41.3907 38.4569 41.2597 38.4684 41.1249C38.4799 40.9901 38.4638 40.8544 38.4212 40.726C38.3786 40.5976 38.3103 40.4792 38.2206 40.378L33.755 35.3383C33.5794 35.1389 33.3318 35.0174 33.0666 35.0006C32.8015 34.9838 32.5405 35.073 32.3411 35.2486C32.1417 35.4242 32.0203 35.6718 32.0035 35.937C31.9951 36.0683 32.0128 36.1999 32.0553 36.3244C32.0979 36.4489 32.1645 36.5638 32.2515 36.6625L36.0221 40.9176Z" fill="#F5F6F7"/>
<path d="M85.5706 50.16C85.4766 50.0133 85.3459 49.8937 85.1916 49.8128C85.0373 49.732 84.8645 49.6927 84.6904 49.6989C84.5163 49.7051 84.3468 49.7565 84.1985 49.8481C84.0503 49.9397 83.9285 50.0683 83.8451 50.2213C83.7617 50.3742 83.7195 50.5463 83.7228 50.7205C83.7261 50.8947 83.7747 51.065 83.8638 51.2148C83.953 51.3645 84.0795 51.4884 84.2311 51.5744C84.3827 51.6603 84.554 51.7053 84.7282 51.7049C84.8603 51.7055 84.9911 51.6799 85.1132 51.6296C85.2353 51.5793 85.3462 51.5052 85.4395 51.4118C85.5327 51.3183 85.6066 51.2073 85.6566 51.0851C85.7067 50.963 85.7321 50.8321 85.7312 50.7C85.7318 50.5082 85.6759 50.3204 85.5706 50.16Z" fill="#F5F6F7"/>
<path d="M86.0672 75.0151C86.1873 75.0698 86.317 75.1002 86.4488 75.1047C86.5807 75.1091 86.7121 75.0875 86.8356 75.041C86.9591 74.9946 87.0722 74.9242 87.1684 74.834C87.2646 74.7437 87.3421 74.6354 87.3964 74.5151C87.4554 74.3865 87.4861 74.2467 87.4865 74.1052C87.4866 73.8761 87.4082 73.6538 87.2644 73.4754C87.1205 73.297 86.9199 73.1733 86.696 73.1248C86.472 73.0763 86.2382 73.1059 86.0334 73.2088C85.8287 73.3117 85.6653 73.4816 85.5706 73.6902C85.5114 73.8188 85.4806 73.9586 85.4805 74.1001C85.4801 74.2928 85.5353 74.4816 85.6393 74.6439C85.7434 74.8061 85.8919 74.935 86.0672 75.0151Z" fill="#F5F6F7"/>
<path d="M80.1345 46.455C80.266 46.4553 80.3964 46.4297 80.518 46.3796C80.6397 46.3295 80.7502 46.2559 80.8434 46.163C80.9365 46.0701 81.0105 45.9598 81.0609 45.8383C81.1114 45.7168 81.1374 45.5866 81.1375 45.455C81.1384 45.3116 81.1079 45.1697 81.0482 45.0393C80.9885 44.9089 80.9009 44.7931 80.7917 44.7001C80.6699 44.5947 80.5243 44.5203 80.3675 44.4833C80.2107 44.4463 80.0472 44.4477 79.8911 44.4875C79.735 44.5273 79.5908 44.6043 79.4708 44.7118C79.3508 44.8194 79.2587 44.9544 79.2021 45.1053C79.1456 45.2562 79.1264 45.4185 79.1462 45.5784C79.166 45.7384 79.2242 45.8911 79.3158 46.0237C79.4073 46.1563 79.5296 46.2647 79.6722 46.3398C79.8147 46.4149 79.9734 46.4545 80.1345 46.455Z" fill="#F5F6F7"/>
<path d="M82.6219 48.9201C82.8639 48.9182 83.0971 48.8295 83.2791 48.6701C83.3883 48.577 83.4759 48.4612 83.5356 48.3308C83.5953 48.2003 83.6258 48.0584 83.6249 47.9149C83.623 47.7229 83.5663 47.5355 83.4613 47.3747C83.3563 47.2139 83.2074 47.0866 83.0324 47.0077C82.8573 46.9288 82.6633 46.9017 82.4733 46.9296C82.2833 46.9575 82.1053 47.0391 81.9603 47.1649C81.761 47.3395 81.6391 47.586 81.6212 47.8503C81.6033 48.1146 81.6909 48.3752 81.8648 48.5751C81.9591 48.6833 82.0754 48.77 82.206 48.8295C82.3366 48.889 82.4784 48.9199 82.6219 48.9201Z" fill="#F5F6F7"/>
<path d="M86.4234 54.7652C86.5676 54.7654 86.7099 54.7329 86.8397 54.6702C87.0151 54.5907 87.1635 54.4618 87.2668 54.2993C87.3701 54.1368 87.4239 53.9477 87.4215 53.7552C87.4216 53.6136 87.3909 53.4737 87.3314 53.3453C87.2349 53.1377 87.0704 52.9693 86.8651 52.868C86.6599 52.7666 86.4262 52.7384 86.2027 52.788C85.9792 52.8376 85.7794 52.962 85.6362 53.1406C85.4931 53.3193 85.4152 53.5414 85.4155 53.7703C85.4192 54.0353 85.5269 54.2882 85.7155 54.4744C85.9041 54.6606 86.1584 54.765 86.4234 54.7652Z" fill="#F5F6F7"/>
<path d="M83.9663 76.635C83.8604 76.7932 83.8045 76.9795 83.8057 77.1699C83.8048 77.3383 83.8467 77.5041 83.9274 77.6519C84.0081 77.7997 84.1249 77.9246 84.267 78.0149C84.4296 78.1161 84.6172 78.1698 84.8087 78.1699C84.9766 78.171 85.142 78.1293 85.2893 78.0488C85.4367 77.9684 85.5612 77.8518 85.6511 77.71C85.7563 77.5514 85.8122 77.3652 85.8117 77.1748C85.8121 76.958 85.7421 76.747 85.6123 76.5734C85.4824 76.3998 85.2997 76.273 85.0917 76.2121C84.8836 76.1513 84.6614 76.1596 84.4585 76.2359C84.2555 76.3121 84.0828 76.4522 83.9663 76.635Z" fill="#F5F6F7"/>
<path d="M39.7735 68.5102C39.8186 68.5102 39.8685 68.5051 39.919 68.5002C40.1551 68.4655 40.3712 68.3478 40.5283 68.1682C40.6855 67.9886 40.7735 67.7589 40.7766 67.5202C40.7783 67.4683 40.7748 67.4164 40.7663 67.3652C40.729 67.1159 40.5992 66.8898 40.4028 66.7318C40.2063 66.5738 39.9576 66.4955 39.7061 66.5125C39.4546 66.5296 39.2188 66.6406 39.0454 66.8236C38.872 67.0066 38.7739 67.2481 38.7705 67.5002C38.7705 67.55 38.7754 67.6001 38.7803 67.6501C38.8147 67.889 38.934 68.1075 39.1165 68.2655C39.2989 68.4234 39.5322 68.5103 39.7735 68.5102Z" fill="#F5F6F7"/>
<path d="M39.5228 65.0249C39.7204 65.0243 39.9135 64.9652 40.0775 64.8549C40.2416 64.7447 40.3693 64.5883 40.4445 64.4055C40.5197 64.2227 40.5391 64.0218 40.5002 63.828C40.4613 63.6342 40.3658 63.4563 40.2258 63.3167C40.0859 63.1772 39.9077 63.0822 39.7138 63.0439C39.5199 63.0056 39.319 63.0255 39.1364 63.1013C38.9539 63.1771 38.7978 63.3053 38.6881 63.4696C38.5784 63.634 38.5198 63.8272 38.5198 64.0249C38.521 64.2903 38.6271 64.5444 38.8151 64.7317C39.003 64.9191 39.2574 65.0245 39.5228 65.0249Z" fill="#F5F6F7"/>
<path d="M38.7755 60.4C38.7655 60.451 38.7605 60.503 38.7603 60.555C38.765 60.7943 38.855 61.024 39.0141 61.2028C39.1732 61.3816 39.391 61.4976 39.6281 61.5301C39.6745 61.5382 39.7216 61.5415 39.7686 61.5399C40.0097 61.5392 40.2425 61.452 40.4247 61.2942C40.6068 61.1364 40.7263 60.9185 40.7614 60.68C40.7663 60.6299 40.7717 60.5799 40.7717 60.5301C40.7683 60.2776 40.6699 60.0357 40.4961 59.8525C40.3222 59.6694 40.0857 59.5586 39.8337 59.5422C39.5817 59.5257 39.3328 59.6049 39.1367 59.7639C38.9405 59.9229 38.8115 60.15 38.7755 60.4Z" fill="#F5F6F7"/>
<path d="M42.7321 53.8551C42.7335 53.6621 42.6788 53.4728 42.5747 53.3104C42.4705 53.1479 42.3213 53.0192 42.1454 52.94C41.9932 52.8704 41.8259 52.8399 41.659 52.8515C41.492 52.8631 41.3306 52.9163 41.1894 53.0063C41.0483 53.0963 40.932 53.2202 40.851 53.3667C40.7701 53.5132 40.7271 53.6777 40.7261 53.845C40.7253 54.0379 40.7802 54.2269 40.8843 54.3892C40.9884 54.5516 41.1372 54.6804 41.3128 54.7601C41.443 54.8211 41.5853 54.8519 41.7291 54.8499C41.9208 54.8511 42.1089 54.797 42.2708 54.6942C42.4326 54.5914 42.5615 54.4442 42.642 54.2701C42.701 54.1397 42.7317 53.9982 42.7321 53.8551Z" fill="#F5F6F7"/>
<path d="M40.5058 58.1302C40.7226 58.1306 40.9336 58.0606 41.1072 57.9308C41.2809 57.8009 41.4077 57.6183 41.4686 57.4102C41.4938 57.3207 41.5073 57.2283 41.5088 57.1353C41.5105 56.8934 41.4247 56.659 41.2672 56.4753C41.1098 56.2917 40.8912 56.1711 40.6519 56.1357C40.4126 56.1004 40.1685 56.1528 39.9647 56.2832C39.761 56.4136 39.6111 56.6132 39.5429 56.8453C39.5173 56.9347 39.5038 57.0272 39.5027 57.1202C39.5007 57.3379 39.5702 57.5503 39.7006 57.7247C39.831 57.8991 40.0152 58.0258 40.2246 58.0853C40.3155 58.1144 40.4103 58.1295 40.5058 58.1302Z" fill="#F5F6F7"/>
<path d="M42.592 77.7948C42.6834 77.9348 42.8084 78.0497 42.9555 78.1292C43.1026 78.2087 43.2672 78.2502 43.4344 78.2499C43.566 78.2504 43.6964 78.2249 43.8182 78.1749C43.9399 78.1248 44.0505 78.0512 44.1437 77.9583C44.237 77.8654 44.3109 77.755 44.3613 77.6334C44.4117 77.5118 44.4375 77.3815 44.4374 77.2499C44.4386 77.0579 44.3827 76.8699 44.2768 76.7098C44.1593 76.5279 43.9861 76.3889 43.783 76.3136C43.5799 76.2383 43.358 76.2307 43.1503 76.292C42.9426 76.3534 42.7603 76.4803 42.6307 76.6538C42.5011 76.8273 42.4312 77.0382 42.4314 77.2547C42.4334 77.4462 42.4891 77.6333 42.592 77.7948Z" fill="#F5F6F7"/>
<path d="M40.5209 71.9202C40.6176 71.9216 40.7139 71.9081 40.8064 71.8801C40.9847 71.8268 41.1447 71.7248 41.2683 71.5857C41.3919 71.4465 41.4743 71.2757 41.5062 71.0923C41.5381 70.9089 41.5183 70.7203 41.449 70.5475C41.3797 70.3748 41.2636 70.2248 41.1138 70.1143C40.964 70.0039 40.7863 69.9374 40.6008 69.9223C40.4153 69.9071 40.2292 69.944 40.0635 70.0287C39.8978 70.1134 39.7589 70.2427 39.6626 70.4019C39.5662 70.5611 39.5161 70.7441 39.5179 70.9302C39.5188 71.0232 39.5321 71.1156 39.5575 71.2051C39.6201 71.4119 39.7476 71.5931 39.9211 71.7218C40.0946 71.8506 40.3049 71.9201 40.5209 71.9202Z" fill="#F5F6F7"/>
<path d="M41.3328 73.2849C41.1568 73.3641 41.0076 73.4928 40.9035 73.6552C40.7993 73.8177 40.7446 74.007 40.7461 74.1999C40.7466 74.342 40.7793 74.4822 40.8416 74.6099C40.9215 74.7833 41.0495 74.9301 41.2103 75.0329C41.3712 75.1358 41.5582 75.1902 41.7491 75.1899C41.8944 75.1895 42.038 75.1588 42.1708 75.0998C42.4115 74.9887 42.5982 74.7865 42.6898 74.5378C42.7814 74.289 42.7704 74.0141 42.6593 73.7734C42.6042 73.6542 42.5263 73.5471 42.4298 73.458C42.3334 73.369 42.2204 73.2998 42.0972 73.2544C41.8484 73.1628 41.5735 73.1738 41.3328 73.2849Z" fill="#F5F6F7"/>
<path d="M43.4095 51.7851C43.5409 51.7863 43.6712 51.7614 43.7929 51.7119C43.9146 51.6624 44.0253 51.5893 44.1185 51.4967C44.2118 51.4042 44.2858 51.2941 44.3363 51.1728C44.3867 51.0515 44.4126 50.9214 44.4125 50.79C44.4144 50.6215 44.373 50.4553 44.2922 50.3073C44.2114 50.1594 44.094 50.0346 43.9512 49.9451C43.8409 49.8733 43.7175 49.8239 43.588 49.7999C43.4586 49.776 43.3257 49.7778 43.197 49.8053C43.0682 49.8328 42.9462 49.8854 42.8379 49.9602C42.7296 50.035 42.6371 50.1305 42.5657 50.2411C42.4944 50.3517 42.4456 50.4754 42.4222 50.6049C42.3988 50.7344 42.4012 50.8673 42.4292 50.9959C42.4573 51.1245 42.5105 51.2463 42.5858 51.3543C42.661 51.4623 42.7569 51.5544 42.8678 51.6252C43.029 51.73 43.2173 51.7856 43.4095 51.7851Z" fill="#F5F6F7"/>
<path d="M44.8837 79.2901C44.7297 79.4238 44.6203 79.6014 44.5701 79.799C44.5199 79.9967 44.5313 80.2049 44.6028 80.3959C44.6743 80.5869 44.8025 80.7514 44.9702 80.8675C45.1379 80.9835 45.337 81.0455 45.5409 81.0452C45.8064 81.0451 46.061 80.9398 46.249 80.7524C46.437 80.565 46.543 80.3107 46.5439 80.0452C46.5456 79.804 46.458 79.5708 46.2981 79.3902C46.212 79.2904 46.1071 79.2086 45.9893 79.1495C45.8715 79.0905 45.7431 79.0553 45.6117 79.046C45.4802 79.0366 45.3482 79.0534 45.2233 79.0953C45.0983 79.1372 44.9829 79.2034 44.8837 79.2901Z" fill="#F5F6F7"/>
<path d="M47.9831 46.5151C48.1153 46.5161 48.2463 46.4908 48.3686 46.4407C48.4909 46.3905 48.602 46.3165 48.6953 46.223C48.7887 46.1294 48.8625 46.0182 48.9124 45.8958C48.9624 45.7735 48.9874 45.6424 48.9861 45.5102C48.9868 45.2706 48.8993 45.0392 48.7402 44.8601C48.5658 44.6595 48.3189 44.5364 48.0537 44.5176C47.7885 44.4989 47.5268 44.5861 47.3258 44.7602C47.1718 44.8938 47.0623 45.0714 47.012 45.2691C46.9618 45.4667 46.9732 45.675 47.0447 45.866C47.1162 46.057 47.2445 46.2216 47.4122 46.3376C47.5799 46.4536 47.7792 46.5155 47.9831 46.5151Z" fill="#F5F6F7"/>
<path d="M44.5073 47.9902C44.507 48.1336 44.5378 48.2754 44.5976 48.4057C44.6573 48.536 44.7447 48.6518 44.8536 48.7451C44.9986 48.8711 45.1768 48.9527 45.3669 48.9803C45.557 49.0079 45.751 48.9803 45.9259 48.9007C46.1008 48.8212 46.2491 48.6931 46.3532 48.5317C46.4574 48.3703 46.5129 48.1823 46.5133 47.9902C46.5127 47.8463 46.4815 47.7042 46.4219 47.5732C46.3623 47.4422 46.2756 47.3253 46.1676 47.2302C45.966 47.0568 45.7038 46.9704 45.4386 46.9901C45.1734 47.0097 44.9269 47.1339 44.7532 47.3352C44.594 47.5162 44.5065 47.7492 44.5073 47.9902Z" fill="#F5F6F7"/>
<path d="M83.7156 79.9701C83.7159 79.8267 83.6851 79.6849 83.6254 79.5545C83.5656 79.4242 83.4782 79.3083 83.3694 79.215C83.27 79.1282 83.1545 79.0619 83.0294 79.0199C82.9043 78.9779 82.7722 78.961 82.6406 78.9702C82.5089 78.9795 82.3805 79.0146 82.2625 79.0737C82.1445 79.1328 82.0393 79.2146 81.9531 79.3144C81.8668 79.4142 81.8012 79.5301 81.7598 79.6554C81.7185 79.7807 81.7024 79.913 81.7123 80.0445C81.7223 80.1761 81.7582 80.3044 81.8179 80.422C81.8776 80.5397 81.9599 80.6444 82.0602 80.7301C82.2404 80.8887 82.4725 80.9758 82.7126 80.975C82.8573 80.9745 83.0001 80.9431 83.1316 80.8827C83.2631 80.8224 83.3801 80.7345 83.4747 80.6251C83.6345 80.4448 83.7205 80.211 83.7156 79.9701Z" fill="#F5F6F7"/>
<path d="M66.5 67.4952V66.0352C65.7728 66.3444 64.9903 66.5026 64.2 66.5002H63.8C63.0097 66.5026 62.2272 66.3444 61.5 66.0352V67.4952L64 70.0652L66.5 67.4952Z" fill="#F5F6F7"/>
<path d="M64.2001 64.5C64.8578 64.504 65.5049 64.3347 66.0764 64.009C66.6478 63.6834 67.1233 63.2129 67.4551 62.645L64.5551 63.17C64.4957 63.1816 64.4355 63.1883 64.3751 63.19C64.1254 63.1899 63.8847 63.0965 63.7004 62.9281C63.516 62.7596 63.4013 62.5284 63.3787 62.2797C63.3562 62.031 63.4274 61.7829 63.5785 61.584C63.7295 61.3852 63.9495 61.25 64.1951 61.205L68.0001 60.515V57.375C68.0105 56.8696 67.92 56.3671 67.7336 55.8972C67.5473 55.4273 67.269 54.9993 66.915 54.6383C66.5611 54.2774 66.1386 53.9908 65.6724 53.7953C65.2062 53.5998 64.7056 53.4994 64.2001 53.5H63.8001C63.2945 53.4994 62.794 53.5998 62.3278 53.7953C61.8616 53.9908 61.4391 54.2774 61.0851 54.6383C60.7312 54.9993 60.4529 55.4273 60.2665 55.8972C60.0802 56.3671 59.9896 56.8696 60.0001 57.375V60.625C59.9896 61.1304 60.0802 61.6329 60.2665 62.1028C60.4529 62.5727 60.7312 63.0007 61.0851 63.3617C61.4391 63.7226 61.8616 64.0092 62.3278 64.2047C62.794 64.4002 63.2945 64.5006 63.8001 64.5H64.2001Z" fill="#F5F6F7"/>
<path d="M64 42.5C59.7477 42.5 55.5909 43.761 52.0553 46.1234C48.5196 48.4859 45.7639 51.8437 44.1366 55.7723C42.5093 59.7009 42.0835 64.0239 42.9131 68.1944C43.7427 72.365 45.7904 76.196 48.7972 79.2028C51.804 82.2096 55.635 84.2573 59.8056 85.0869C63.9762 85.9165 68.2991 85.4907 72.2277 83.8634C76.1563 82.2361 79.5142 79.4804 81.8766 75.9448C84.2391 72.4091 85.5 68.2523 85.5 64C85.4936 58.2998 83.2263 52.835 79.1957 48.8043C75.165 44.7737 69.7002 42.5065 64 42.5ZM51.1192 78.6222L52.095 72.12C52.2291 71.1601 52.6082 70.251 53.1959 69.4803C53.7835 68.7096 54.5599 68.1033 55.45 67.72L59.5 65.935V64.595C58.5237 63.5043 57.9889 62.0888 58 60.625V57.375C57.9865 56.6061 58.1268 55.8422 58.4125 55.1283C58.6983 54.4143 59.1238 53.7646 59.6641 53.2173C60.2043 52.6701 60.8485 52.2362 61.5588 51.9413C62.269 51.6464 63.031 51.4964 63.8 51.5H64.2C64.969 51.4964 65.731 51.6464 66.4413 51.9413C67.1515 52.2362 67.7957 52.6701 68.336 53.2173C68.8762 53.7646 69.3017 54.4143 69.5875 55.1283C69.8733 55.8422 70.0135 56.6061 70 57.375V60.15L72 59.79V57.375C72.007 55.2973 71.1899 53.3015 69.7277 51.8253C68.2656 50.3491 66.2777 49.5129 64.2 49.5H63.8C61.7223 49.5129 59.7345 50.3491 58.2723 51.8253C56.8102 53.3015 55.993 55.2973 56 57.375V60.5641C56.0058 60.808 55.9261 61.0462 55.7746 61.2373C55.6232 61.4285 55.4095 61.5605 55.1708 61.6106C55.0272 61.635 54.88 61.6279 54.7394 61.5897C54.5989 61.5515 54.4683 61.4831 54.3569 61.3892C54.2455 61.2954 54.1558 61.1785 54.0942 61.0465C54.0325 60.9145 54.0004 60.7707 54 60.625V57.375C53.9929 54.7668 55.0207 52.2622 56.8579 50.4109C58.6952 48.5596 61.1918 47.5127 63.8 47.5H64.2C66.8082 47.5127 69.3048 48.5596 71.1421 50.4109C72.9794 52.2622 74.0072 54.7668 74 57.375V59.79C74.0004 60.2592 73.8359 60.7135 73.5352 61.0737C73.2345 61.4338 72.8167 61.6767 72.355 61.76L69.785 62.225C69.547 63.1043 69.107 63.9158 68.5 64.595V65.935L72.55 67.72C73.4415 68.1048 74.219 68.7127 74.8074 69.4851C75.3959 70.2574 75.7756 71.1683 75.91 72.13L76.8811 78.6219C73.3264 81.765 68.7452 83.4999 64.0002 83.5C59.2552 83.5 54.674 81.7652 51.1192 78.6222Z" fill="#F5F6F7"/>
</g>
<defs>
<clipPath id="clip0_2285_699">
<rect width="64" height="64" fill="white" transform="translate(32 32)"/>
</clipPath>
</defs>
</svg>
