<svg width="128" height="128" viewBox="0 0 128 128" fill="none" xmlns="http://www.w3.org/2000/svg">
<rect width="128" height="128" rx="64" fill="#DB9935"/>
<path fill-rule="evenodd" clip-rule="evenodd" d="M49.4691 42.4125C53.5964 39.9458 58.2885 38.6483 63.1483 38.6483C70.1917 38.6483 76.8377 41.3651 81.8637 46.2985C82.0212 46.4521 82.1037 46.6667 82.091 46.8863C82.0783 47.106 81.9717 47.3091 81.7977 47.4437L79.9633 48.8693L86.4125 50.196L86.7184 43.6198L84.8827 45.0468C84.5767 45.2829 84.1438 45.2537 83.8721 44.9795C78.3624 39.3796 71.0029 36.2959 63.1483 36.2959C57.7223 36.2959 52.5135 37.7698 47.9508 40.578L48.9372 40.6237C49.1606 40.6352 49.3676 40.7418 49.5034 40.9183C49.6405 41.0935 49.6938 41.3207 49.6481 41.5391L49.4691 42.4125ZM74.1882 55.8962V77.4681C74.1882 77.8883 73.8467 78.2298 73.4264 78.2298H67.8215C67.4 78.2298 67.0597 77.8883 67.0597 77.4681V60.4729C67.0597 60.2431 67.1626 60.0272 67.339 59.8825L72.9453 55.3071C73.1725 55.1205 73.4874 55.0824 73.7527 55.2081C74.0193 55.3351 74.1882 55.6029 74.1882 55.8962ZM69.2852 51.3056L49.7167 67.2801C49.5745 67.3956 49.4044 67.4527 49.2355 67.4527C49.0146 67.4527 48.795 67.3562 48.6439 67.1722C48.3786 66.8459 48.4268 66.366 48.7531 66.1007L68.2912 50.1516L65.9387 49.9129C65.5211 49.871 65.2151 49.4978 65.2583 49.0788C65.3002 48.6599 65.6747 48.3564 66.0924 48.3971L70.3021 48.8236C70.5027 48.8439 70.6881 48.943 70.8163 49.0991C70.9432 49.2565 71.0042 49.4571 70.9839 49.6577L70.5573 53.8675C70.5179 54.2598 70.1866 54.553 69.8007 54.553C69.7753 54.553 69.7486 54.5518 69.7232 54.5492C69.3043 54.5061 68.9996 54.1328 69.0415 53.7151L69.2852 51.3056ZM44.5649 48.3539L46.4603 50.7927C46.6431 51.0275 46.9453 51.1354 47.2347 51.0682C47.5242 50.9996 47.7476 50.7698 47.8073 50.4791L49.0413 44.4907C53.213 41.6647 58.0829 40.1718 63.1483 40.1718C69.4985 40.1718 75.5059 42.5141 80.1626 46.7848L77.7238 48.6802C77.4889 48.863 77.381 49.1651 77.4483 49.4546C77.5169 49.744 77.7454 49.9675 78.0374 50.0271L84.0258 51.2611C86.8517 55.4328 88.3447 60.3027 88.3447 65.3682C88.3447 71.7184 86.0024 77.7258 81.7317 82.3824L79.8363 79.9437C79.6535 79.7088 79.3513 79.6009 79.0619 79.6682C78.7724 79.7367 78.549 79.9665 78.4893 80.2572L77.2553 86.2456C73.0837 89.0716 68.2137 90.5646 63.1483 90.5646C56.7981 90.5646 50.7907 88.2223 46.1341 83.9516L48.5728 82.0562C48.8077 81.8733 48.9156 81.5712 48.8483 81.2817C48.7798 80.9923 48.5512 80.7688 48.2593 80.7092L42.2709 79.4752C39.4449 75.3035 37.9519 70.4323 37.9519 65.3682C37.9519 59.018 40.2942 53.0105 44.5649 48.3539ZM64.9003 63.4791C64.9003 63.1846 64.7302 62.9167 64.4648 62.791C64.1995 62.6653 63.8846 62.7021 63.6561 62.8888L58.0511 67.4642C57.8734 67.6089 57.7706 67.826 57.7706 68.0545V77.4681C57.7706 77.8883 58.1121 78.2298 58.5323 78.2298H64.1385C64.5588 78.2298 64.9003 77.8883 64.9003 77.4681V63.4791ZM55.6111 71.0607C55.6111 70.7675 55.4423 70.4996 55.1757 70.3727C54.9103 70.247 54.5955 70.2851 54.3682 70.4717L48.762 75.0471C48.5855 75.1918 48.4827 75.4089 48.4827 75.6374V77.4681C48.4827 77.8883 48.8229 78.2298 49.2444 78.2298H54.8494C55.2696 78.2298 55.6111 77.8883 55.6111 77.4681V71.0607ZM68.5832 60.8334V76.7063H72.6647V57.5021L68.5832 60.8334ZM59.294 68.4163V76.7063H63.3768V65.0838L59.294 68.4163ZM54.0877 72.6667L50.0061 75.9992V76.7063H54.0877V72.6667ZM40.1927 79.0474L39.3192 78.8684C39.1009 78.8239 38.8736 78.876 38.6984 79.0131C38.5219 79.1489 38.4153 79.3559 38.4052 79.578L38.3582 80.5657C35.55 76.003 34.076 70.7929 34.076 65.3682C34.076 57.5136 37.1597 50.1541 42.7596 44.6443C43.0351 44.3727 43.0631 43.9385 42.8269 43.6338L41.4 41.798L47.9761 42.104L46.6495 48.5532L45.2238 46.7188C45.0892 46.5448 44.8861 46.4382 44.6665 46.4255C44.4469 46.4128 44.2323 46.4953 44.0787 46.6527C39.1453 51.6788 36.4285 58.3248 36.4285 65.3682C36.4285 70.2279 37.726 74.9201 40.1927 79.0474ZM76.8275 88.3238C72.7003 90.7905 68.0081 92.088 63.1483 92.088C56.105 92.088 49.459 89.3712 44.4329 84.4378C44.2755 84.2842 44.1929 84.0696 44.2056 83.85C44.2183 83.6304 44.325 83.4272 44.4989 83.2927L46.3334 81.867L39.8842 80.5403L39.5782 87.1165L41.4139 85.6896C41.7186 85.4534 42.1528 85.4813 42.4245 85.7568C47.9343 91.3567 55.2937 94.4404 63.1483 94.4404C68.573 94.4404 73.7832 92.9665 78.3459 90.1583L77.3594 90.1126C77.136 90.1012 76.9291 89.9945 76.7932 89.8181C76.6561 89.6429 76.6028 89.4156 76.6485 89.1973L76.8275 88.3238ZM86.104 51.689L86.9774 51.868C87.0282 51.8794 87.0802 51.8845 87.131 51.8845C87.2986 51.8845 87.4636 51.8286 87.5982 51.7232C87.7747 51.5874 87.8813 51.3805 87.8927 51.1583L87.9384 50.1706C90.7467 54.7333 92.2206 59.9422 92.2206 65.3682C92.2206 73.2228 89.1369 80.5822 83.537 86.092C83.2615 86.3637 83.2336 86.7979 83.4697 87.1025L84.8967 88.9383L78.3205 88.6323L79.6471 82.1831L81.0728 84.0176C81.2074 84.1915 81.4105 84.2981 81.6301 84.3108C81.8498 84.3235 82.0643 84.241 82.2179 84.0836C87.1513 79.0575 89.8681 72.4115 89.8681 65.3682C89.8681 60.5084 88.5707 55.8162 86.104 51.689Z" fill="#F5F6F7"/>
</svg>
