<svg width="251" height="52" viewBox="0 0 251 52" fill="none" xmlns="http://www.w3.org/2000/svg">
<path d="M11.583 15.168C10.647 15.22 9.958 15.324 9.516 15.48C9.1 15.636 8.814 15.935 8.658 16.377C8.502 16.819 8.424 17.534 8.424 18.522V37.866C8.424 38.854 8.502 39.569 8.658 40.011C8.814 40.453 9.1 40.752 9.516 40.908C9.958 41.038 10.647 41.103 11.583 41.103H14.43C16.042 41.103 17.264 40.882 18.096 40.44C18.954 39.972 19.578 39.231 19.968 38.217C20.358 37.203 20.644 35.734 20.826 33.81H21.723C21.645 34.616 21.606 35.682 21.606 37.008C21.606 38.49 21.697 40.154 21.879 42C20.111 41.922 17.134 41.883 12.948 41.883C7.956 41.883 4.186 41.922 1.638 42V41.22C2.574 41.168 3.25 41.064 3.666 40.908C4.108 40.752 4.407 40.453 4.563 40.011C4.719 39.569 4.797 38.854 4.797 37.866V18.522C4.797 17.534 4.719 16.819 4.563 16.377C4.407 15.935 4.108 15.636 3.666 15.48C3.25 15.324 2.574 15.22 1.638 15.168V14.388C2.73 14.466 4.394 14.505 6.63 14.505C8.71 14.505 10.361 14.466 11.583 14.388V15.168ZM48.4727 15.168C47.5627 15.22 46.8867 15.363 46.4447 15.597C46.0027 15.805 45.7037 16.169 45.5477 16.689C45.3917 17.183 45.3137 17.924 45.3137 18.912V30.651C45.3137 32.523 45.1837 34.135 44.9237 35.487C44.6897 36.813 44.2867 37.957 43.7147 38.919C43.0647 40.037 42.1027 40.921 40.8287 41.571C39.5807 42.221 38.1637 42.546 36.5777 42.546C33.7177 42.546 31.5337 41.844 30.0257 40.44C28.8817 39.374 28.1147 38.165 27.7247 36.813C27.3347 35.461 27.1397 33.446 27.1397 30.768V18.522C27.1397 17.534 27.0617 16.819 26.9057 16.377C26.7497 15.935 26.4507 15.636 26.0087 15.48C25.5927 15.324 24.9167 15.22 23.9807 15.168V14.388C25.0727 14.466 26.7367 14.505 28.9727 14.505C31.0787 14.505 32.7297 14.466 33.9257 14.388V15.168C32.9897 15.22 32.3007 15.324 31.8587 15.48C31.4427 15.636 31.1567 15.935 31.0007 16.377C30.8447 16.819 30.7667 17.534 30.7667 18.522V31.431C30.7667 33.511 30.9097 35.24 31.1957 36.618C31.4817 37.996 32.0667 39.101 32.9507 39.933C33.8607 40.765 35.1867 41.181 36.9287 41.181C39.6847 41.181 41.6217 40.297 42.7397 38.529C43.8577 36.761 44.4167 34.278 44.4167 31.08V18.912C44.4167 17.508 44.1567 16.546 43.6367 16.026C43.1427 15.506 42.2197 15.22 40.8677 15.168V14.388C41.8037 14.466 43.1297 14.505 44.8457 14.505C46.4057 14.505 47.6147 14.466 48.4727 14.388V15.168ZM59.4957 13.959C60.6397 13.959 61.5367 14.089 62.1867 14.349C62.8627 14.583 63.5517 14.934 64.2537 15.402C64.8257 15.766 65.2677 15.948 65.5797 15.948C65.8137 15.948 65.9957 15.818 66.1257 15.558C66.2557 15.272 66.3597 14.83 66.4377 14.232H67.3347C67.2047 15.74 67.1397 18.392 67.1397 22.188H66.2427C66.0867 20.082 65.4757 18.314 64.4097 16.884C63.3697 15.428 61.8487 14.7 59.8467 14.7C58.4427 14.7 57.2987 15.129 56.4147 15.987C55.5307 16.819 55.0887 17.898 55.0887 19.224C55.0887 20.212 55.3097 21.07 55.7517 21.798C56.2197 22.526 56.8047 23.15 57.5067 23.67C58.2087 24.19 59.2097 24.853 60.5097 25.659L61.6407 26.361C63.2787 27.375 64.5657 28.272 65.5017 29.052C66.4637 29.806 67.2307 30.677 67.8027 31.665C68.3747 32.653 68.6607 33.81 68.6607 35.136C68.6607 37.502 67.8807 39.335 66.3207 40.635C64.7607 41.909 62.7847 42.546 60.3927 42.546C59.1447 42.546 58.1177 42.416 57.3117 42.156C56.5317 41.896 55.7777 41.545 55.0497 41.103C54.4777 40.739 54.0357 40.557 53.7237 40.557C53.4897 40.557 53.3077 40.7 53.1777 40.986C53.0477 41.246 52.9437 41.675 52.8657 42.273H51.9687C52.0727 40.843 52.1247 37.723 52.1247 32.913H53.0217C53.2037 35.539 53.8537 37.671 54.9717 39.309C56.0897 40.947 57.8057 41.766 60.1197 41.766C61.5237 41.766 62.7197 41.337 63.7077 40.479C64.6957 39.595 65.1897 38.295 65.1897 36.579C65.1897 35.123 64.6957 33.888 63.7077 32.874C62.7457 31.86 61.2117 30.716 59.1057 29.442C57.5717 28.506 56.3237 27.674 55.3617 26.946C54.4257 26.218 53.6587 25.347 53.0607 24.333C52.4627 23.293 52.1637 22.084 52.1637 20.706C52.1637 18.522 52.8657 16.858 54.2697 15.714C55.6737 14.544 57.4157 13.959 59.4957 13.959ZM98.4582 15.168C97.5222 15.22 96.8332 15.324 96.3912 15.48C95.9752 15.636 95.6892 15.935 95.5332 16.377C95.3772 16.819 95.2992 17.534 95.2992 18.522V37.866C95.2992 38.854 95.3772 39.569 95.5332 40.011C95.6892 40.453 95.9752 40.752 96.3912 40.908C96.8332 41.064 97.5222 41.168 98.4582 41.22V42C97.3662 41.922 95.7022 41.883 93.4662 41.883C91.3602 41.883 89.7092 41.922 88.5132 42V41.22C89.4492 41.168 90.1252 41.064 90.5412 40.908C90.9832 40.752 91.2822 40.453 91.4382 40.011C91.5942 39.569 91.6722 38.854 91.6722 37.866V28.506H78.9972V37.866C78.9972 38.854 79.0752 39.569 79.2312 40.011C79.3872 40.453 79.6732 40.752 80.0892 40.908C80.5312 41.064 81.2202 41.168 82.1562 41.22V42C80.9602 41.922 79.3092 41.883 77.2032 41.883C74.9672 41.883 73.3032 41.922 72.2112 42V41.22C73.1472 41.168 73.8232 41.064 74.2392 40.908C74.6812 40.752 74.9802 40.453 75.1362 40.011C75.2922 39.569 75.3702 38.854 75.3702 37.866V18.522C75.3702 17.534 75.2922 16.819 75.1362 16.377C74.9802 15.935 74.6812 15.636 74.2392 15.48C73.8232 15.324 73.1472 15.22 72.2112 15.168V14.388C73.3032 14.466 74.9672 14.505 77.2032 14.505C79.2832 14.505 80.9342 14.466 82.1562 14.388V15.168C81.2202 15.22 80.5312 15.324 80.0892 15.48C79.6732 15.636 79.3872 15.935 79.2312 16.377C79.0752 16.819 78.9972 17.534 78.9972 18.522V27.726H91.6722V18.522C91.6722 17.534 91.5942 16.819 91.4382 16.377C91.2822 15.935 90.9832 15.636 90.5412 15.48C90.1252 15.324 89.4492 15.22 88.5132 15.168V14.388C89.7092 14.466 91.3602 14.505 93.4662 14.505C95.7022 14.505 97.3662 14.466 98.4582 14.388V15.168ZM135.971 13.842C137.609 13.842 138.961 14.323 140.027 15.285C141.119 16.221 141.665 17.495 141.665 19.107C141.665 20.355 141.327 21.447 140.651 22.383C139.975 23.293 139.078 24.021 137.96 24.567C136.972 25.035 135.048 25.711 132.188 26.595C133.644 27.219 134.71 28.116 135.386 29.286C136.088 30.43 136.439 31.743 136.439 33.225C136.439 34.837 135.958 36.358 134.996 37.788C134.034 39.218 132.656 40.375 130.862 41.259C129.068 42.117 126.962 42.546 124.544 42.546C122.282 42.546 120.176 42.156 118.226 41.376C116.302 40.57 114.768 39.439 113.624 37.983C112.48 36.501 111.908 34.785 111.908 32.835C111.908 31.119 112.324 29.676 113.156 28.506C114.014 27.31 114.989 26.413 116.081 25.815C117.173 25.191 118.187 24.762 119.123 24.528C117.849 23.982 116.874 23.254 116.198 22.344C115.522 21.434 115.184 20.485 115.184 19.497C115.184 18.639 115.431 17.846 115.925 17.118C116.445 16.364 117.199 15.766 118.187 15.324C119.201 14.856 120.397 14.622 121.775 14.622C123.517 14.622 124.869 15.012 125.831 15.792C126.299 16.182 126.65 16.624 126.884 17.118C127.144 17.586 127.274 18.041 127.274 18.483C127.274 19.107 127.053 19.614 126.611 20.004C126.169 20.368 125.662 20.55 125.09 20.55C124.544 20.55 124.063 20.381 123.647 20.043C123.257 19.679 123.062 19.198 123.062 18.6C123.062 18.028 123.257 17.547 123.647 17.157C124.037 16.741 124.531 16.507 125.129 16.455C124.999 16.117 124.661 15.831 124.115 15.597C123.595 15.337 122.945 15.207 122.165 15.207C120.813 15.207 119.721 15.623 118.889 16.455C118.057 17.261 117.641 18.392 117.641 19.848C117.641 21.59 118.304 23.072 119.63 24.294C120.54 24.138 121.346 24.06 122.048 24.06C122.516 24.06 122.893 24.138 123.179 24.294C123.465 24.45 123.608 24.671 123.608 24.957C123.608 25.191 123.504 25.373 123.296 25.503C123.114 25.633 122.854 25.698 122.516 25.698C122.1 25.698 121.671 25.62 121.229 25.464C120.787 25.308 120.267 25.1 119.669 24.84C116.289 25.854 114.599 27.986 114.599 31.236C114.599 32.978 115.054 34.486 115.964 35.76C116.874 37.034 118.122 38.009 119.708 38.685C121.294 39.335 123.075 39.66 125.051 39.66C126.897 39.66 128.6 39.374 130.16 38.802C131.746 38.204 132.994 37.372 133.904 36.306C134.84 35.214 135.308 33.953 135.308 32.523C135.308 31.483 135.035 30.43 134.489 29.364C133.943 28.298 132.903 27.466 131.369 26.868C129.341 27.492 127.846 27.986 126.884 28.35C125.792 28.766 124.947 29.247 124.349 29.793C123.751 30.313 123.452 30.963 123.452 31.743C123.452 32.679 123.829 33.433 124.583 34.005C125.363 34.577 126.182 34.863 127.04 34.863C127.482 34.863 127.963 34.785 128.483 34.629C129.003 34.473 129.302 34.265 129.38 34.005C128.886 33.901 128.457 33.693 128.093 33.381C127.729 33.069 127.547 32.614 127.547 32.016C127.547 31.392 127.742 30.898 128.132 30.534C128.548 30.17 129.068 29.988 129.692 29.988C130.316 29.988 130.81 30.183 131.174 30.573C131.564 30.963 131.759 31.47 131.759 32.094C131.759 33.134 131.278 33.953 130.316 34.551C129.354 35.149 128.288 35.448 127.118 35.448C125.844 35.448 124.713 35.071 123.725 34.317C122.763 33.537 122.282 32.393 122.282 30.885C122.282 29.559 122.724 28.441 123.608 27.531C124.518 26.595 125.87 25.815 127.664 25.191L130.433 24.372C131.993 23.93 133.293 23.54 134.333 23.202C135.373 22.864 136.322 22.5 137.18 22.11C138.428 21.538 139.299 20.953 139.793 20.355C140.287 19.757 140.534 19.094 140.534 18.366C140.534 17.274 140.079 16.351 139.169 15.597C138.285 14.817 137.232 14.427 136.01 14.427C135.36 14.427 134.97 14.544 134.84 14.778C135.178 14.934 135.438 15.194 135.62 15.558C135.828 15.896 135.932 16.234 135.932 16.572C135.932 17.118 135.711 17.573 135.269 17.937C134.853 18.301 134.346 18.483 133.748 18.483C133.202 18.483 132.721 18.314 132.305 17.976C131.889 17.638 131.681 17.157 131.681 16.533C131.681 15.597 132.11 14.921 132.968 14.505C133.852 14.063 134.853 13.842 135.971 13.842ZM163.736 15.168C162.8 15.22 162.111 15.324 161.669 15.48C161.253 15.636 160.967 15.935 160.811 16.377C160.655 16.819 160.577 17.534 160.577 18.522V37.866C160.577 38.854 160.655 39.569 160.811 40.011C160.967 40.453 161.253 40.752 161.669 40.908C162.111 41.038 162.8 41.103 163.736 41.103H166.583C168.195 41.103 169.417 40.882 170.249 40.44C171.107 39.972 171.731 39.231 172.121 38.217C172.511 37.203 172.797 35.734 172.979 33.81H173.876C173.798 34.616 173.759 35.682 173.759 37.008C173.759 38.49 173.85 40.154 174.032 42C172.264 41.922 169.287 41.883 165.101 41.883C160.109 41.883 156.339 41.922 153.791 42V41.22C154.727 41.168 155.403 41.064 155.819 40.908C156.261 40.752 156.56 40.453 156.716 40.011C156.872 39.569 156.95 38.854 156.95 37.866V18.522C156.95 17.534 156.872 16.819 156.716 16.377C156.56 15.935 156.261 15.636 155.819 15.48C155.403 15.324 154.727 15.22 153.791 15.168V14.388C154.883 14.466 156.547 14.505 158.783 14.505C160.863 14.505 162.514 14.466 163.736 14.388V15.168ZM200.626 15.168C199.716 15.22 199.04 15.363 198.598 15.597C198.156 15.805 197.857 16.169 197.701 16.689C197.545 17.183 197.467 17.924 197.467 18.912V30.651C197.467 32.523 197.337 34.135 197.077 35.487C196.843 36.813 196.44 37.957 195.868 38.919C195.218 40.037 194.256 40.921 192.982 41.571C191.734 42.221 190.317 42.546 188.731 42.546C185.871 42.546 183.687 41.844 182.179 40.44C181.035 39.374 180.268 38.165 179.878 36.813C179.488 35.461 179.293 33.446 179.293 30.768V18.522C179.293 17.534 179.215 16.819 179.059 16.377C178.903 15.935 178.604 15.636 178.162 15.48C177.746 15.324 177.07 15.22 176.134 15.168V14.388C177.226 14.466 178.89 14.505 181.126 14.505C183.232 14.505 184.883 14.466 186.079 14.388V15.168C185.143 15.22 184.454 15.324 184.012 15.48C183.596 15.636 183.31 15.935 183.154 16.377C182.998 16.819 182.92 17.534 182.92 18.522V31.431C182.92 33.511 183.063 35.24 183.349 36.618C183.635 37.996 184.22 39.101 185.104 39.933C186.014 40.765 187.34 41.181 189.082 41.181C191.838 41.181 193.775 40.297 194.893 38.529C196.011 36.761 196.57 34.278 196.57 31.08V18.912C196.57 17.508 196.31 16.546 195.79 16.026C195.296 15.506 194.373 15.22 193.021 15.168V14.388C193.957 14.466 195.283 14.505 196.999 14.505C198.559 14.505 199.768 14.466 200.626 14.388V15.168ZM223.505 39.231C223.999 39.985 224.415 40.492 224.753 40.752C225.091 41.012 225.546 41.155 226.118 41.181V42C224.35 41.896 223.232 41.844 222.764 41.844C221.906 41.844 220.073 41.896 217.265 42V41.181C218.279 41.181 218.994 41.142 219.41 41.064C219.826 40.96 220.034 40.791 220.034 40.557C220.034 40.349 219.943 40.115 219.761 39.855L213.092 29.637L208.88 35.916C207.892 37.398 207.398 38.542 207.398 39.348C207.398 40.024 207.697 40.505 208.295 40.791C208.893 41.051 209.751 41.194 210.869 41.22V42C209.387 41.922 207.632 41.883 205.604 41.883C204.174 41.883 203.069 41.922 202.289 42V41.22C203.069 41.116 203.81 40.765 204.512 40.167C205.24 39.569 205.968 38.724 206.696 37.632L212.585 28.857L204.941 17.157C204.447 16.403 204.031 15.896 203.693 15.636C203.355 15.376 202.9 15.233 202.328 15.207V14.388C204.096 14.492 205.214 14.544 205.682 14.544C207.424 14.544 209.257 14.492 211.181 14.388V15.207C210.245 15.207 209.569 15.285 209.153 15.441C208.763 15.571 208.568 15.779 208.568 16.065C208.568 16.221 208.685 16.507 208.919 16.923L215.003 26.205L218.825 20.472C219.943 18.834 220.502 17.586 220.502 16.728C220.502 16.182 220.255 15.792 219.761 15.558C219.267 15.324 218.513 15.194 217.499 15.168V14.388C218.981 14.466 220.476 14.505 221.984 14.505C223.414 14.505 224.519 14.466 225.299 14.388V15.168C224.519 15.272 223.765 15.623 223.037 16.221C222.335 16.819 221.62 17.664 220.892 18.756L215.432 26.907L223.505 39.231ZM247.989 37.008C247.989 38.49 248.08 40.154 248.262 42C246.494 41.922 243.517 41.883 239.331 41.883C234.339 41.883 230.569 41.922 228.021 42V41.22C228.957 41.168 229.633 41.064 230.049 40.908C230.491 40.752 230.79 40.453 230.946 40.011C231.102 39.569 231.18 38.854 231.18 37.866V18.522C231.18 17.534 231.102 16.819 230.946 16.377C230.79 15.935 230.491 15.636 230.049 15.48C229.633 15.324 228.957 15.22 228.021 15.168V14.388C230.569 14.466 234.339 14.505 239.331 14.505C243.153 14.505 245.87 14.466 247.482 14.388C247.3 16.104 247.209 17.638 247.209 18.99C247.209 20.004 247.248 20.81 247.326 21.408H246.429C246.247 19.718 246.013 18.47 245.727 17.664C245.441 16.832 244.96 16.234 244.284 15.87C243.608 15.48 242.581 15.285 241.203 15.285H237.966C237.03 15.285 236.341 15.363 235.899 15.519C235.483 15.649 235.197 15.935 235.041 16.377C234.885 16.819 234.807 17.534 234.807 18.522V27.726H237.381C238.291 27.726 238.993 27.518 239.487 27.102C239.981 26.66 240.306 26.153 240.462 25.581C240.644 24.983 240.787 24.242 240.891 23.358L241.008 22.578H241.905C241.827 23.67 241.788 24.892 241.788 26.244V28.116C241.788 29.442 241.866 31.288 242.022 33.654H241.125C241.099 33.472 241.021 32.848 240.891 31.782C240.761 30.69 240.397 29.871 239.799 29.325C239.227 28.779 238.421 28.506 237.381 28.506H234.807V37.866C234.807 38.854 234.885 39.569 235.041 40.011C235.197 40.453 235.483 40.752 235.899 40.908C236.341 41.038 237.03 41.103 237.966 41.103H240.813C242.425 41.103 243.647 40.895 244.479 40.479C245.337 40.037 245.961 39.348 246.351 38.412C246.741 37.45 247.027 36.046 247.209 34.2H248.106C248.028 34.902 247.989 35.838 247.989 37.008Z" fill="#DB9935"/>
</svg>
