<svg width="146" height="150" viewBox="0 0 146 150" fill="none" xmlns="http://www.w3.org/2000/svg">
<path d="M72.9993 147.513C67.1985 147.513 63.5495 145.298 59.2655 142.747C56.9296 141.356 54.7236 140.043 52.6986 139.385C50.5215 138.678 47.8696 138.423 45.0618 138.153C40.1698 137.682 34.6253 137.148 30.1157 133.867C25.5656 130.555 23.3463 125.426 21.3884 120.9C20.2772 118.332 19.2278 115.906 17.908 114.093C16.6171 112.32 14.6548 110.598 12.5771 108.775C8.8476 105.503 4.62094 103.606 2.85932 98.1806C1.16537 92.9637 2.36039 87.5719 3.41479 82.8144C4.03588 80.0127 4.62211 77.3663 4.62211 75C4.62211 72.6337 4.03559 69.9873 3.41479 67.1856C2.36039 62.4284 1.28402 57.2865 2.97797 52.0696C4.68363 46.8164 8.21889 44.1018 11.0132 39.7274C11.1325 39.6226 11.2514 39.5183 11.3698 39.4146C13.4475 37.5917 15.4101 35.8699 16.7009 34.0963C18.0204 32.2831 19.0699 29.8573 20.1811 27.2892C22.139 22.7637 24.3582 17.6344 28.9083 14.3229C33.418 11.0408 38.963 10.5073 43.855 10.0365C46.6625 9.76641 49.3145 9.51094 51.4915 8.8043C53.5162 8.14688 55.7223 6.8332 58.0581 5.44248C62.3425 2.89131 67.1985 0 72.9993 0C78.8 0 83.656 2.89131 87.9404 5.44248C90.2762 6.8332 92.4823 8.14658 94.5073 8.8043C96.6843 9.51123 99.3363 9.76641 102.144 10.0365C107.036 10.5073 112.581 11.0411 117.09 14.3229C121.64 17.6344 123.86 22.7637 125.817 27.2892C126.929 29.8573 127.978 32.2831 129.298 34.0963C130.589 35.8699 132.551 37.5914 134.629 39.4143C138.358 42.6861 142.585 46.3942 144.347 51.8197C146.04 57.0366 144.845 62.4284 143.791 67.1859C143.17 69.9876 142.584 72.634 142.584 75.0003C142.584 77.3666 143.17 80.013 143.791 82.8147C144.845 87.5719 146.04 92.964 144.347 98.1809C142.585 103.606 138.358 107.314 134.629 110.586C132.551 112.409 130.588 114.131 129.298 115.904C127.978 117.717 126.929 120.143 125.817 122.711C125.4 123.677 124.97 124.671 124.509 125.668C121.629 129.447 119.759 131.759 116.18 134.364C111.671 137.646 106.126 138.18 101.234 138.65C98.426 138.921 95.4902 139.695 93.3131 140.402C91.2884 141.059 89.0824 142.373 86.7465 143.764C82.4621 146.314 78.8 147.513 72.9993 147.513Z" fill="#DB9935"/>
<path d="M124.509 125.668C122.807 129.344 120.668 133.071 117.092 135.676C112.583 138.96 107.035 139.494 102.143 139.965C99.336 140.234 96.6861 140.49 94.507 141.196C92.4817 141.854 90.2756 143.167 87.9427 144.558C83.6572 147.109 78.8009 150 73.0001 150C67.1993 150 62.3431 147.109 58.0605 144.558C55.7243 143.167 53.5183 141.854 51.493 141.196C49.3139 140.49 46.664 140.234 43.8541 139.965C38.9648 139.494 33.4174 138.96 28.9083 135.676C24.36 132.365 22.1387 127.237 20.1828 122.71C19.0693 120.142 18.0219 117.718 16.7029 115.904C15.4112 114.13 13.4495 112.409 11.37 110.586C7.64259 107.315 3.41418 103.605 1.65168 98.1787C-0.04139 92.9633 1.15363 87.57 2.20715 82.8134C2.82882 80.0126 3.41447 77.3656 3.41447 74.9996C3.41447 72.6333 2.82882 69.9866 2.20715 67.1858C1.15392 62.4292 -0.04139 57.0359 1.65168 51.8205C3.35705 46.5661 7.37717 42.923 11.0138 39.7271C8.44533 47.2936 7.05402 55.4 7.05402 63.8328C7.05402 105.253 40.6335 138.833 82.054 138.833C97.8149 138.833 112.437 133.97 124.509 125.668Z" fill="#DB9935" fill-opacity="0.56"/>
<path d="M73.0008 135.362C106.338 135.362 133.363 108.337 133.363 74.9998C133.363 41.6627 106.338 14.6377 73.0008 14.6377C39.6637 14.6377 12.6387 41.6627 12.6387 74.9998C12.6387 108.337 39.6637 135.362 73.0008 135.362Z" fill="#F5F8F9"/>
<path d="M123.422 67.7296C122.354 67.7296 121.404 66.9711 121.2 65.8836C119.376 56.1813 114.701 47.3419 107.68 40.3206C100.659 33.2996 91.8198 28.6244 82.1176 26.8012C80.8888 26.5704 80.08 25.3871 80.3108 24.1584C80.542 22.9297 81.7238 22.1208 82.9537 22.3519C93.5556 24.3444 103.213 29.4511 110.882 37.1196C118.55 44.7881 123.656 54.4455 125.649 65.0474C125.88 66.2761 125.071 67.4592 123.842 67.6903C123.701 67.7167 123.56 67.7296 123.422 67.7296Z" fill="#E8EDF2"/>
<path d="M82.5271 127.689C81.4595 127.689 80.5092 126.93 80.305 125.843C80.0741 124.614 80.883 123.431 82.1117 123.2C91.8151 121.377 100.655 116.703 107.678 109.681C114.699 102.66 119.375 93.8196 121.198 84.1165C121.429 82.8881 122.612 82.0792 123.841 82.3098C125.07 82.5406 125.879 83.7239 125.648 84.9526C123.656 95.5555 118.549 105.213 110.879 112.883C103.209 120.552 93.551 125.658 82.9475 127.649C82.8063 127.676 82.6657 127.689 82.5271 127.689Z" fill="#E8EDF2"/>
<path d="M63.468 127.688C63.3295 127.688 63.1889 127.675 63.0473 127.649C52.4451 125.656 42.788 120.55 35.1192 112.881C27.4505 105.212 22.344 95.5552 20.3518 84.953C20.121 83.7242 20.9299 82.5412 22.1583 82.3101C23.3873 82.0783 24.57 82.8881 24.8012 84.1168C26.6243 93.8191 31.2995 102.659 38.3205 109.68C45.3415 116.701 54.1812 121.376 63.8835 123.199C65.1122 123.43 65.9211 124.614 65.6902 125.842C65.4857 126.929 64.5356 127.688 63.468 127.688Z" fill="#E8EDF2"/>
<path d="M22.579 67.7296C22.4404 67.7296 22.2998 67.7167 22.1583 67.6904C20.9296 67.4595 20.121 66.2762 20.3518 65.0475C22.3443 54.4456 27.4508 44.7881 35.1192 37.1197C42.7877 29.4512 52.4451 24.3445 63.0471 22.352C64.2755 22.1206 65.4588 22.93 65.6899 24.1584C65.9208 25.3872 65.1119 26.5702 63.8832 26.8013C54.181 28.6248 45.3415 33.2997 38.3202 40.3207C31.2992 47.3419 26.6243 56.1814 24.8012 65.8836C24.5967 66.9708 23.6466 67.7296 22.579 67.7296Z" fill="#E8EDF2"/>
<path d="M115.254 75C115.254 51.6642 96.3364 32.7466 73.0006 32.7466C62.2627 32.7466 52.46 36.7521 45.006 43.3506C38.6644 52.0058 32.2305 62.4021 32.2305 75C32.2305 98.3358 49.9478 115.429 73.2839 115.429C88.8147 115.429 98.0942 108.998 109.448 96.3899C113.138 90.1157 115.254 82.805 115.254 75Z" fill="#DB9935"/>
<path d="M109.447 96.3897C102.107 108.872 88.5307 117.253 72.9995 117.253C49.6634 117.253 30.7461 98.3358 30.7461 75C30.7461 62.4023 36.2601 51.0905 45.0037 43.3491C41.3126 49.6236 39.1968 56.9335 39.1968 64.7385C39.1968 88.0746 58.1144 106.992 81.4502 106.992C92.1887 106.992 101.992 102.987 109.447 96.3897Z" fill="#DB9935" fill-opacity="0.56"/>
<path d="M67.2662 97.9273C66.0706 97.9273 64.9201 97.4539 64.0697 96.6054L44.8576 77.4447C43.0872 75.6792 43.0834 72.8128 44.8492 71.0424C46.6146 69.2717 49.481 69.2682 51.2514 71.0339L66.0235 85.7665C66.5259 86.2674 67.35 86.2293 67.8038 85.6838L90.9815 57.8292C92.5825 55.9091 95.4372 55.6501 97.3576 57.2512C99.2781 58.8523 99.537 61.707 97.9357 63.6274L70.7438 96.2993C69.9302 97.2751 68.7437 97.8643 67.4742 97.9226C67.4048 97.9258 67.3354 97.9273 67.2662 97.9273Z" fill="#F5F8F9"/>
</svg>
